<svg viewBox="0 0 102 27" fill="none" xmlns="http://www.w3.org/2000/svg">
<path d="M16.6416 0C16.8275 0 16.9785 0.151024 16.9785 0.336914V8.47852C16.9785 8.75494 17.2935 8.91354 17.5156 8.74902L28.2354 0.80957C28.3548 0.721086 28.5187 0.721548 28.6377 0.810547L29.667 1.58301C29.8472 1.71815 29.847 1.98899 29.666 2.12305L20.2744 9.07812C20.0137 9.27125 20.1501 9.68555 20.4746 9.68555H31.7051C31.891 9.68555 32.042 9.83657 32.042 10.0225V11.3301C32.042 11.516 31.891 11.667 31.7051 11.667H18.403C17.6594 11.667 17.0566 12.2698 17.0566 13.0133V21.2969C17.0566 21.4827 16.9056 21.6338 16.7197 21.6338H15.3994C15.2136 21.6337 15.0625 21.4827 15.0625 21.2969V13.1543C15.0624 12.8781 14.7485 12.7196 14.5264 12.8838L3.80566 20.8232C3.68605 20.9118 3.52239 20.9116 3.40332 20.8223L2.37402 20.0508C2.19384 19.9156 2.19498 19.6448 2.37598 19.5107L11.7676 12.5547C12.0281 12.3616 11.8917 11.9484 11.5674 11.9482H0.336914C0.151054 11.9482 4.79743e-05 11.7972 0 11.6113V10.3037C0 10.1178 0.151024 9.9668 0.336914 9.9668H13.639C14.3826 9.9668 14.9854 9.36402 14.9854 8.62046V0.336914C14.9854 0.151134 15.1356 0.000178179 15.3213 0H16.6416Z" fill="white"/>
<path d="M92.2381 26.0096C92.0238 26.0096 91.8688 25.8049 91.9269 25.5986L95.1687 14.085C95.2079 13.9456 95.3351 13.8493 95.4799 13.8493H97.6005C97.7453 13.8493 97.8724 13.9456 97.9117 14.085L101.154 25.5986C101.212 25.8049 101.057 26.0096 100.842 26.0096H99.3657C99.2189 26.0096 99.0905 25.9107 99.053 25.7688L96.8528 17.4317C96.7681 17.1106 96.3123 17.1106 96.2275 17.4317L94.0274 25.7688C93.9899 25.9107 93.8615 26.0096 93.7147 26.0096H92.2381ZM94.3488 23.1322C94.1319 23.1322 93.9765 22.9227 94.0394 22.7151L94.4197 21.4606C94.461 21.3243 94.5867 21.2311 94.7291 21.2311H98.3513C98.4937 21.2311 98.6194 21.3243 98.6607 21.4606L99.041 22.7151C99.1039 22.9227 98.9485 23.1322 98.7315 23.1322H94.3488Z" fill="white"/>
<path d="M82.3383 26.0096C82.1597 26.0096 82.0149 25.8648 82.0149 25.6863V14.1726C82.0149 13.994 82.1597 13.8493 82.3383 13.8493H85.8309C87.1199 13.8493 88.1319 14.1747 88.8668 14.8255C89.6017 15.4763 89.9692 16.367 89.9692 17.4974C89.9692 18.0797 89.8392 18.5935 89.5791 19.0388C89.3304 19.4841 88.9968 19.8381 88.5785 20.1007C88.1837 20.3377 87.7537 20.4782 87.2885 20.5221C87.2395 20.5267 87.1945 20.4956 87.1802 20.4485C87.159 20.3789 87.2129 20.3092 87.2855 20.3138C88.0818 20.3634 88.6824 20.555 89.0873 20.8886C89.5169 21.2311 89.7657 21.7963 89.8335 22.5842L90.0923 25.6591C90.1082 25.8478 89.9594 26.0096 89.7701 26.0096H88.3153C88.1475 26.0096 88.0076 25.8814 87.9931 25.7142L87.7644 23.0809C87.7305 22.647 87.6457 22.3101 87.51 22.0703C87.3856 21.8306 87.1877 21.665 86.9164 21.5737C86.6563 21.4823 86.2945 21.4366 85.8309 21.4366H84.4413C84.2627 21.4366 84.118 21.5814 84.118 21.76V25.6863C84.118 25.8648 83.9732 26.0096 83.7946 26.0096H82.3383ZM84.118 19.1608C84.118 19.3394 84.2627 19.4841 84.4413 19.4841H85.7801C86.4358 19.4841 86.9333 19.3243 87.2725 19.0046C87.6231 18.6849 87.7983 18.2281 87.7983 17.6344C87.7983 17.0406 87.6231 16.5896 87.2725 16.2813C86.9333 15.9616 86.4358 15.8018 85.7801 15.8018H84.4413C84.2627 15.8018 84.118 15.9465 84.118 16.1251V19.1608Z" fill="white"/>
<path d="M75.5495 26.0096C75.3709 26.0096 75.2262 25.8648 75.2262 25.6863V16.1251C75.2262 15.9465 75.0814 15.8018 74.9028 15.8018H72.2054C72.0268 15.8018 71.882 15.657 71.882 15.4784V14.1726C71.882 13.994 72.0268 13.8493 72.2054 13.8493H80.3412C80.5198 13.8493 80.6645 13.994 80.6645 14.1726V15.4784C80.6645 15.657 80.5198 15.8018 80.3412 15.8018H77.6438C77.4652 15.8018 77.3204 15.9465 77.3204 16.1251V25.6863C77.3204 25.8648 77.1757 26.0096 76.9971 26.0096H75.5495Z" fill="white"/>
<path d="M66.0836 26.3474C65.0799 26.3474 64.2319 26.0879 63.5396 25.5689C62.8474 25.0499 62.3167 24.3119 61.9475 23.3546C61.5898 22.3974 61.411 21.2614 61.411 19.9467C61.411 18.6204 61.5898 17.4787 61.9475 16.5215C62.3167 15.5643 62.8474 14.8262 63.5396 14.3072C64.2319 13.7767 65.0799 13.5114 66.0836 13.5114C67.2373 13.5114 68.2007 13.892 68.9737 14.6532C69.6798 15.3485 70.1549 16.3084 70.3989 17.533C70.4365 17.7218 70.2941 17.896 70.1019 17.9051L68.5472 17.9785C68.3852 17.9862 68.2436 17.8723 68.2078 17.7141C68.0504 17.02 67.798 16.4841 67.4508 16.1063C67.07 15.6681 66.6143 15.4489 66.0836 15.4489C65.5413 15.4489 65.0856 15.6277 64.7164 15.9852C64.3588 16.3312 64.0876 16.8386 63.903 17.5075C63.7184 18.1764 63.6261 18.9895 63.6261 19.9467C63.6261 20.8924 63.7184 21.6997 63.903 22.3686C64.0876 23.0375 64.3588 23.5449 64.7164 23.8909C65.0856 24.2369 65.5413 24.4099 66.0836 24.4099C66.6374 24.4099 67.1162 24.1792 67.52 23.7179C67.8801 23.2962 68.1347 22.7048 68.2838 21.9438C68.3154 21.7824 68.4575 21.6642 68.6218 21.6707L70.1732 21.7317C70.3647 21.7393 70.5082 21.9111 70.4738 22.0997C70.2396 23.3837 69.7626 24.3959 69.0429 25.1364C68.2699 25.9437 67.2835 26.3474 66.0836 26.3474Z" fill="white"/>
<path d="M52.6129 26.0096C52.4343 26.0096 52.2896 25.8648 52.2896 25.6863V14.1726C52.2896 13.994 52.4343 13.8493 52.6129 13.8493H59.5966C59.7752 13.8493 59.9199 13.994 59.9199 14.1726V15.4784C59.9199 15.657 59.7752 15.8018 59.5966 15.8018H54.7633C54.5847 15.8018 54.4399 15.9465 54.4399 16.1251V18.647C54.4399 18.8255 54.5847 18.9703 54.7633 18.9703H59.3885C59.5671 18.9703 59.7118 19.1151 59.7118 19.2937V20.531C59.7118 20.7095 59.5671 20.8543 59.3885 20.8543H54.7633C54.5847 20.8543 54.4399 20.9991 54.4399 21.1777V23.7338C54.4399 23.9123 54.5847 24.0571 54.7633 24.0571H59.7353C59.9139 24.0571 60.0587 24.2019 60.0587 24.3805V25.6863C60.0587 25.8648 59.9139 26.0096 59.7353 26.0096H52.6129Z" fill="white"/>
<path d="M43.1564 26.0096C42.9778 26.0096 42.833 25.8648 42.833 25.6863V14.1726C42.833 13.994 42.9778 13.8493 43.1564 13.8493H46.6975C47.5334 13.8493 48.272 14.0091 48.9132 14.3288C49.5544 14.6485 50.0525 15.0938 50.4075 15.6647C50.7624 16.2357 50.9399 16.915 50.9399 17.7029C50.9399 18.4793 50.7624 19.153 50.4075 19.7239C50.0525 20.2948 49.5544 20.7401 48.9132 21.0598C48.272 21.3681 47.5334 21.5223 46.6975 21.5223H45.2861C45.1076 21.5223 44.9628 21.667 44.9628 21.8456V25.6863C44.9628 25.8648 44.818 26.0096 44.6394 26.0096H43.1564ZM44.9628 19.2635C44.9628 19.4421 45.1076 19.5869 45.2861 19.5869H46.4742C47.2414 19.5869 47.8082 19.427 48.1746 19.1073C48.5525 18.7762 48.7414 18.3081 48.7414 17.7029C48.7414 17.0749 48.5525 16.601 48.1746 16.2813C47.8082 15.9616 47.2414 15.8018 46.4742 15.8018H45.2861C45.1076 15.8018 44.9628 15.9465 44.9628 16.1251V19.2635Z" fill="white"/>
<path d="M37.209 26.3474C36.3239 26.3474 35.5523 26.1686 34.8942 25.8111C34.2474 25.4536 33.7368 24.9519 33.3624 24.3061C33.0348 23.7311 32.8245 23.0678 32.7314 22.3163C32.7091 22.1365 32.8471 21.9796 33.028 21.9694L34.5461 21.8837C34.714 21.8742 34.86 21.9953 34.8916 22.1605C34.9751 22.5977 35.1008 22.9727 35.2686 23.2854C35.4842 23.6545 35.7622 23.937 36.1026 24.1331C36.4544 24.3176 36.8572 24.4099 37.3111 24.4099C37.7423 24.4099 38.1054 24.3522 38.4004 24.2369C38.7067 24.1216 38.9394 23.9486 39.0982 23.7179C39.2571 23.4873 39.3365 23.2105 39.3365 22.8876C39.3365 22.5416 39.2571 22.2417 39.0982 21.988C38.9394 21.7343 38.6557 21.4979 38.2472 21.2787C37.8387 21.0596 37.2544 20.8463 36.4941 20.6387C35.6771 20.4196 35.0077 20.1658 34.4857 19.8775C33.9638 19.5892 33.578 19.2317 33.3283 18.805C33.0787 18.3667 32.9539 17.8189 32.9539 17.1616C32.9539 16.4235 33.1127 15.7834 33.4305 15.2414C33.7595 14.6878 34.2304 14.2611 34.8431 13.9612C35.4672 13.6614 36.2104 13.5114 37.0728 13.5114C37.9238 13.5114 38.65 13.6787 39.2514 14.0131C39.8528 14.336 40.3237 14.8031 40.6641 15.4143C40.9674 15.9314 41.1694 16.5342 41.2703 17.2228C41.297 17.4054 41.1566 17.5668 40.9722 17.5757L39.4481 17.6489C39.2795 17.657 39.1346 17.5335 39.1012 17.3679C39.0355 17.042 38.9324 16.7541 38.7919 16.5042C38.6216 16.1697 38.3834 15.9103 38.077 15.7257C37.782 15.5412 37.4189 15.4489 36.9877 15.4489C36.409 15.4489 35.9495 15.5989 35.6091 15.8987C35.2686 16.187 35.0984 16.5676 35.0984 17.0405C35.0984 17.3749 35.1722 17.6517 35.3197 17.8708C35.4786 18.0899 35.7452 18.286 36.1197 18.459C36.4941 18.632 37.0217 18.805 37.7026 18.978C38.6443 19.2317 39.3876 19.5315 39.9322 19.8775C40.4882 20.2235 40.8854 20.6387 41.1236 21.1231C41.3619 21.6074 41.4811 22.1783 41.4811 22.8357C41.4811 23.5392 41.3052 24.1562 40.9534 24.6867C40.6017 25.2172 40.1081 25.6266 39.4727 25.9149C38.8372 26.2032 38.0827 26.3474 37.209 26.3474Z" fill="white"/>
<path d="M23.5639 26.0096C23.3853 26.0096 23.2405 25.8648 23.2405 25.6863V14.1726C23.2405 13.994 23.3853 13.8493 23.5639 13.8493H25.3308C25.4603 13.8493 25.5774 13.9266 25.6282 14.0458L28.6479 21.1282C28.786 21.452 29.2687 21.3533 29.2687 21.0014V14.1726C29.2687 13.994 29.4135 13.8493 29.5921 13.8493H31.0241C31.2027 13.8493 31.3474 13.994 31.3474 14.1726V25.6863C31.3474 25.8648 31.2027 26.0096 31.0241 26.0096H29.2572C29.1276 26.0096 29.0106 25.9323 28.9597 25.8131L25.94 18.7307C25.8019 18.4069 25.3192 18.5055 25.3192 18.8575V25.6863C25.3192 25.8648 25.1744 26.0096 24.9959 26.0096H23.5639Z" fill="white"/>
<path d="M21.551 25.6863C21.551 25.8648 21.4063 26.0096 21.2277 26.0096H19.8476C19.6691 26.0096 19.5243 25.8648 19.5243 25.6863V14.1726C19.5243 13.994 19.6691 13.8493 19.8476 13.8493H21.2277C21.4063 13.8493 21.551 13.994 21.551 14.1726V25.6863Z" fill="white"/>
</svg>
