<svg width="200" height="53" viewBox="0 0 200 53" fill="none" xmlns="http://www.w3.org/2000/svg">
<g clip-path="url(#clip0_24_2)">
<path d="M182.148 52.5207C181.722 52.5207 181.414 52.1143 181.529 51.7043L187.97 28.8309C188.048 28.5546 188.3 28.3621 188.588 28.3621H192.8C193.087 28.3621 193.341 28.5528 193.419 28.8309L199.859 51.7043C199.975 52.1143 199.667 52.5207 199.241 52.5207H196.307C196.016 52.5207 195.761 52.3247 195.685 52.043L191.314 35.4797C191.144 34.8416 190.241 34.8416 190.071 35.4797L185.701 52.043C185.626 52.3247 185.371 52.5207 185.08 52.5207H182.146H182.148ZM186.341 46.8042C185.909 46.8042 185.601 46.3888 185.726 45.9753L186.481 43.4833C186.563 43.2124 186.813 43.027 187.095 43.027H194.291C194.574 43.027 194.824 43.2124 194.906 43.4833L195.661 45.9753C195.786 46.3871 195.478 46.8042 195.046 46.8042H186.341Z" />
<path d="M163.754 52.5207C163.4 52.5207 163.113 52.2337 163.113 51.879V29.0055C163.113 28.6508 163.4 28.3638 163.754 28.3638H170.694C173.255 28.3638 175.266 29.0109 176.724 30.3032C178.184 31.5956 178.913 33.3656 178.913 35.6116C178.913 36.7685 178.655 37.7899 178.14 38.674C177.646 39.5581 176.983 40.2622 176.15 40.7827C175.366 41.2533 174.512 41.5332 173.587 41.6205C173.489 41.6294 173.4 41.567 173.371 41.4744C173.33 41.3353 173.435 41.1981 173.58 41.207C175.163 41.305 176.355 41.6865 177.159 42.3496C178.013 43.0305 178.507 44.1535 178.642 45.7186L179.156 51.8273C179.188 52.2016 178.892 52.5243 178.516 52.5243H175.624C175.291 52.5243 175.013 52.2694 174.984 51.9378L174.53 46.7061C174.464 45.8433 174.295 45.1749 174.024 44.6989C173.778 44.223 173.384 43.8932 172.845 43.7114C172.328 43.5296 171.61 43.4387 170.689 43.4387H167.927C167.573 43.4387 167.286 43.7257 167.286 44.0804V51.8808C167.286 52.2355 166.997 52.5225 166.642 52.5225H163.749L163.754 52.5207ZM167.291 38.9146C167.291 39.2694 167.578 39.5563 167.933 39.5563H170.592C171.895 39.5563 172.883 39.239 173.557 38.6045C174.254 37.9699 174.601 37.0626 174.601 35.8825C174.601 34.7025 174.254 33.8077 173.557 33.1945C172.883 32.5599 171.895 32.2426 170.592 32.2426H167.933C167.578 32.2426 167.291 32.5296 167.291 32.8843V38.9146Z" />
<path d="M149.555 52.5206C149.2 52.5206 148.911 52.2337 148.911 51.8789V32.8843C148.911 32.5296 148.624 32.2426 148.269 32.2426H142.911C142.556 32.2426 142.268 31.9556 142.268 31.6009V29.0073C142.268 28.6526 142.555 28.3656 142.911 28.3656H159.073C159.428 28.3656 159.717 28.6526 159.717 29.0073V31.6009C159.717 31.9556 159.428 32.2426 159.073 32.2426H153.715C153.36 32.2426 153.071 32.5296 153.071 32.8843V51.8789C153.071 52.2337 152.785 52.5206 152.43 52.5206H149.555Z" />
<path d="M132.585 52.5223C130.599 52.5223 128.922 52.0321 127.553 51.0517C126.184 50.0714 125.134 48.6774 124.405 46.8699C123.697 45.0624 123.344 42.9163 123.344 40.4332C123.344 37.9501 123.697 35.7719 124.405 33.9644C125.134 32.1569 126.184 30.763 127.553 29.7826C128.922 28.7808 130.599 28.2799 132.585 28.2799C134.867 28.2799 136.772 28.9983 138.301 30.4368C139.694 31.7451 140.631 33.5509 141.116 35.8521C141.194 36.2211 140.909 36.5615 140.526 36.5794L137.458 36.7184C137.137 36.7327 136.858 36.5134 136.785 36.2068C136.474 34.902 135.975 33.8949 135.291 33.1837C134.539 32.3566 133.637 31.9412 132.587 31.9412C131.537 31.9412 130.612 32.2781 129.883 32.9537C129.175 33.6079 128.638 34.5651 128.275 35.8289C127.909 37.0927 127.727 38.6275 127.727 40.435C127.727 42.2425 127.909 43.7451 128.275 45.009C128.638 46.2728 129.175 47.23 129.883 47.8842C130.612 48.5384 131.514 48.8646 132.587 48.8646C133.66 48.8646 134.629 48.4296 135.428 47.558C136.139 46.7648 136.64 45.6525 136.936 44.2211C137 43.9091 137.282 43.6792 137.606 43.6917L140.669 43.8075C141.05 43.8218 141.337 44.1587 141.266 44.5259C140.801 46.9394 139.859 48.8432 138.44 50.2371C136.911 51.7612 134.961 52.5241 132.587 52.5241L132.585 52.5223Z" />
<path d="M105.968 52.5207C105.613 52.5207 105.325 52.2337 105.325 51.879V29.0055C105.325 28.6508 105.612 28.3638 105.968 28.3638H119.842C120.196 28.3638 120.485 28.6508 120.485 29.0055V31.5991C120.485 31.9538 120.198 32.2408 119.842 32.2408H110.239C109.884 32.2408 109.596 32.5278 109.596 32.8825V37.8932C109.596 38.248 109.883 38.535 110.239 38.535H119.428C119.783 38.535 120.072 38.8219 120.072 39.1767V41.6348C120.072 41.9895 119.785 42.2765 119.428 42.2765H110.239C109.884 42.2765 109.596 42.5635 109.596 42.9182V47.9966C109.596 48.3513 109.883 48.6383 110.239 48.6383H120.116C120.471 48.6383 120.76 48.9253 120.76 49.2801V51.8736C120.76 52.2284 120.473 52.5153 120.116 52.5153H105.966L105.968 52.5207Z" />
<path d="M87.5387 52.5207C87.184 52.5207 86.897 52.2337 86.897 51.879V29.0055C86.897 28.6508 87.184 28.3638 87.5387 28.3638H94.5743C96.2339 28.3638 97.7009 28.6811 98.9754 29.3157C100.248 29.9503 101.239 30.8362 101.943 31.9699C102.647 33.1036 103 34.453 103 36.018C103 37.5831 102.647 38.8986 101.943 40.0323C101.237 41.166 100.248 42.0519 98.9754 42.6865C97.7009 43.2997 96.2339 43.6045 94.5743 43.6045H91.7704C91.4157 43.6045 91.1287 43.8915 91.1287 44.2462V51.8754C91.1287 52.2301 90.8417 52.5171 90.487 52.5171H87.5405L87.5387 52.5207ZM91.1269 39.1196C91.1269 39.4743 91.4139 39.7613 91.7686 39.7613H94.1287C95.6528 39.7613 96.7775 39.444 97.5066 38.8095C98.257 38.1517 98.6332 37.2212 98.6332 36.0198C98.6332 34.8184 98.257 33.8309 97.5066 33.1963C96.7793 32.5617 95.6528 32.2444 94.1287 32.2444H91.7686C91.4139 32.2444 91.1269 32.5314 91.1269 32.8861V39.1214V39.1196Z" />
<path d="M75.5723 52.5223C73.8219 52.5223 72.296 52.1854 70.9948 51.5098C69.7149 50.8342 68.706 49.8877 67.9645 48.6667C67.3192 47.5865 66.9057 46.3405 66.7185 44.9305C66.6721 44.5793 66.9467 44.2727 67.3067 44.2531L70.3049 44.0909C70.6365 44.0731 70.9253 44.3066 70.9912 44.6275C71.157 45.4474 71.4048 46.1515 71.7345 46.738C72.1606 47.4349 72.7114 47.9679 73.3834 48.3387C74.0786 48.6881 74.8754 48.861 75.7737 48.861C76.6721 48.861 77.3442 48.7522 77.9288 48.5348C78.5349 48.3173 78.9948 47.9911 79.3085 47.5544C79.6222 47.1194 79.7791 46.5954 79.7791 45.9857C79.7791 45.3316 79.6222 44.7665 79.3085 44.287C78.9948 43.8075 78.4333 43.3619 77.6258 42.9483C76.8183 42.5348 75.6615 42.1319 74.1588 41.7398C72.542 41.3262 71.2194 40.8467 70.1873 40.303C69.1552 39.7594 68.3923 39.0838 67.8985 38.2781C67.4048 37.451 67.1588 36.4153 67.1588 35.1747C67.1588 33.7808 67.4725 32.5722 68.1017 31.549C68.7524 30.5027 69.6846 29.697 70.895 29.1319C72.1285 28.5651 73.5991 28.2816 75.3049 28.2816C77.0108 28.2816 78.4244 28.5972 79.6133 29.2299C80.8023 29.8396 81.7345 30.7219 82.4066 31.877C83.0037 32.8485 83.4012 33.9786 83.6026 35.2709C83.6579 35.6275 83.378 35.943 83.0108 35.9608L80.0019 36.098C79.6686 36.1141 79.3816 35.8734 79.3121 35.5526C79.1819 34.943 78.9787 34.4046 78.7024 33.9358C78.3655 33.3048 77.895 32.8146 77.2889 32.4652C76.706 32.1159 75.9876 31.943 75.1338 31.943C73.9894 31.943 73.0803 32.2264 72.4065 32.7932C71.7327 33.3369 71.3959 34.057 71.3959 34.9501C71.3959 35.5811 71.542 36.1052 71.8344 36.5187C72.1481 36.9323 72.6757 37.303 73.4172 37.6292C74.1588 37.9554 75.2016 38.2834 76.5474 38.6096C78.4101 39.0891 79.8807 39.656 80.9574 40.3084C82.0572 40.9626 82.8433 41.7451 83.3139 42.6613C83.7844 43.5758 84.0215 44.6542 84.0215 45.8966C84.0215 47.2246 83.6739 48.3904 82.9787 49.3922C82.2836 50.3939 81.3067 51.1676 80.05 51.7112C78.7934 52.2549 77.3014 52.5276 75.5723 52.5276V52.5223Z" />
<path d="M48.259 52.5207C47.9043 52.5207 47.6173 52.2337 47.6173 51.879V29.0055C47.6173 28.6508 47.9043 28.3638 48.259 28.3638H51.7688C52.0255 28.3638 52.259 28.5171 52.3606 28.7542L58.3588 42.8237C58.6334 43.4672 59.5924 43.2711 59.5924 42.5724V29.0055C59.5924 28.6508 59.8793 28.3638 60.2341 28.3638H63.079C63.4337 28.3638 63.7207 28.6508 63.7207 29.0055V51.879C63.7207 52.2337 63.4337 52.5207 63.079 52.5207H59.5692C59.3125 52.5207 59.079 52.3674 58.9774 52.1303L52.9792 38.0608C52.7047 37.4173 51.7457 37.6134 51.7457 38.3121V51.879C51.7457 52.2337 51.4587 52.5207 51.1039 52.5207H48.259Z" />
<path d="M33.1337 0C33.5027 0 33.8021 0.299465 33.8021 0.668449V16.0499C33.8021 16.6007 34.4314 16.9144 34.8717 16.5847L55.6988 0.989303C55.9376 0.809267 56.2674 0.811053 56.5045 0.992871L58.5615 2.56328C58.9144 2.83244 58.9109 3.36363 58.5561 3.62923L40.3298 17.2692C39.8146 17.6542 40.0873 18.4724 40.7308 18.4724H63.0588C63.4278 18.4724 63.7273 18.7718 63.7273 19.1408V21.8093C63.7273 22.1783 63.4278 22.4777 63.0588 22.4777H36.5615C35.0838 22.4777 33.8859 23.6756 33.8859 25.1533V39.9037C33.8859 40.2727 33.5865 40.5722 33.2175 40.5722H30.5936C30.2246 40.5722 29.9251 40.2727 29.9251 39.9037V24.8075C29.9251 24.2549 29.2941 23.9412 28.8538 24.2727L7.56506 40.3226C7.3262 40.5027 6.99465 40.5027 6.75758 40.3209L4.70053 38.7504C4.34938 38.4813 4.35116 37.9519 4.7041 37.6845L23.4118 23.5793C23.9233 23.1925 23.6506 22.3761 23.0089 22.3761H0.668449C0.299465 22.3761 0 22.0766 0 21.7077V19.0392C0 18.6702 0.299465 18.3708 0.668449 18.3708H27.1658C28.6435 18.3708 29.8414 17.1729 29.8414 15.697V0.668449C29.8414 0.299465 30.1408 0 30.5098 0H33.1337Z" />
<path d="M44.2161 51.879C44.2161 52.2337 43.9291 52.5207 43.5744 52.5207H40.8329C40.4781 52.5207 40.1912 52.2337 40.1912 51.879V29.0055C40.1912 28.6508 40.4781 28.3638 40.8329 28.3638H43.5744C43.9291 28.3638 44.2161 28.6508 44.2161 29.0055V51.879Z" />
</g>
<defs>
<clipPath id="clip0_24_2">
<rect width="200" height="53" />
</clipPath>
</defs>
</svg>
