<svg viewBox="0 0 101 28" fill="none" xmlns="http://www.w3.org/2000/svg">
<g clip-path="url(#clip0_897_37)">
<path d="M20.4875 27.75V14.4375H22.9812L27.0125 24V14.4375H29.2625V27.75H26.7687L22.7375 18.1875V27.75H20.4875ZM35.124 28.05C34.149 28.05 33.299 27.8562 32.574 27.4687C31.8615 27.0812 31.299 26.5375 30.8865 25.8375C30.474 25.125 30.2302 24.2875 30.1552 23.325L32.5177 23.1937C32.6052 23.8062 32.7615 24.3187 32.9865 24.7312C33.224 25.1312 33.5302 25.4375 33.9052 25.65C34.2927 25.85 34.7365 25.95 35.2365 25.95C35.7115 25.95 36.1115 25.8875 36.4365 25.7625C36.774 25.6375 37.0302 25.45 37.2052 25.2C37.3802 24.95 37.4677 24.65 37.4677 24.3C37.4677 23.925 37.3802 23.6 37.2052 23.325C37.0302 23.05 36.7177 22.7937 36.2677 22.5562C35.8177 22.3187 35.174 22.0875 34.3365 21.8625C33.4365 21.625 32.699 21.35 32.124 21.0375C31.549 20.725 31.124 20.3375 30.849 19.875C30.574 19.4 30.4365 18.8062 30.4365 18.0937C30.4365 17.2937 30.6115 16.6 30.9615 16.0125C31.324 15.4125 31.8427 14.95 32.5177 14.625C33.2052 14.3 34.024 14.1375 34.974 14.1375C35.9115 14.1375 36.7115 14.3187 37.374 14.6812C38.0365 15.0312 38.5552 15.5375 38.9302 16.2C39.3177 16.85 39.5552 17.625 39.6427 18.525L37.2615 18.6375C37.199 18.15 37.0677 17.7312 36.8677 17.3812C36.6802 17.0187 36.4177 16.7375 36.0802 16.5375C35.7552 16.3375 35.3552 16.2375 34.8802 16.2375C34.2427 16.2375 33.7365 16.4 33.3615 16.725C32.9865 17.0375 32.799 17.45 32.799 17.9625C32.799 18.325 32.8802 18.625 33.0427 18.8625C33.2177 19.1 33.5115 19.3125 33.924 19.5C34.3365 19.6875 34.9177 19.875 35.6677 20.0625C36.7052 20.3375 37.524 20.6625 38.124 21.0375C38.7365 21.4125 39.174 21.8625 39.4365 22.3875C39.699 22.9125 39.8302 23.5312 39.8302 24.2437C39.8302 25.0062 39.6365 25.675 39.249 26.25C38.8615 26.825 38.3177 27.2687 37.6177 27.5812C36.9177 27.8937 36.0865 28.05 35.124 28.05ZM41.0227 27.75V14.4375H45.2415C46.154 14.4375 46.9602 14.6125 47.6602 14.9625C48.3602 15.3125 48.904 15.8 49.2915 16.425C49.679 17.05 49.8727 17.7937 49.8727 18.6562C49.8727 19.5062 49.679 20.2437 49.2915 20.8687C48.904 21.4937 48.3602 21.9812 47.6602 22.3312C46.9602 22.6687 46.154 22.8375 45.2415 22.8375H43.3477V27.75H41.0227ZM43.3477 20.7187H44.9977C45.8352 20.7187 46.454 20.5437 46.854 20.1937C47.2665 19.8312 47.4727 19.3187 47.4727 18.6562C47.4727 17.9687 47.2665 17.45 46.854 17.1C46.454 16.75 45.8352 16.575 44.9977 16.575H43.3477V20.7187ZM51.2155 27.75V14.4375H59.4655V16.575H53.5405V20.0437H59.2405V22.1062H53.5405V25.6125H59.6155V27.75H51.2155ZM65.4207 28.05C64.3332 28.05 63.4145 27.7687 62.6645 27.2062C61.9145 26.6437 61.3395 25.8437 60.9395 24.8062C60.552 23.7687 60.3582 22.5375 60.3582 21.1125C60.3582 19.675 60.552 18.4375 60.9395 17.4C61.3395 16.3625 61.9145 15.5625 62.6645 15C63.4145 14.425 64.3332 14.1375 65.4207 14.1375C66.6707 14.1375 67.7145 14.55 68.552 15.375C69.3895 16.2 69.927 17.3687 70.1645 18.8812L67.7832 18.9937C67.6207 18.0937 67.327 17.4125 66.902 16.95C66.4895 16.475 65.9957 16.2375 65.4207 16.2375C64.8332 16.2375 64.3395 16.4312 63.9395 16.8187C63.552 17.1937 63.2582 17.7437 63.0582 18.4687C62.8582 19.1937 62.7582 20.075 62.7582 21.1125C62.7582 22.1375 62.8582 23.0125 63.0582 23.7375C63.2582 24.4625 63.552 25.0125 63.9395 25.3875C64.3395 25.7625 64.8332 25.95 65.4207 25.95C66.0207 25.95 66.5395 25.7 66.977 25.2C67.4145 24.6875 67.7082 23.9437 67.8582 22.9687L70.2395 23.0625C70.0145 24.6375 69.477 25.8625 68.627 26.7375C67.7895 27.6125 66.7207 28.05 65.4207 28.05ZM74.301 27.75V16.575H70.5885V14.4375H80.3385V16.575H76.626V27.75H74.301ZM81.156 27.75V14.4375H85.3747C86.7997 14.4375 87.9185 14.7937 88.731 15.5062C89.5435 16.2187 89.9497 17.1937 89.9497 18.4312C89.9497 19.0687 89.806 19.6312 89.5185 20.1187C89.2435 20.6062 88.8747 20.9937 88.4122 21.2812C87.9497 21.5562 87.4435 21.7125 86.8935 21.75L86.8185 21.5062C87.781 21.5437 88.4997 21.7562 88.9747 22.1437C89.4497 22.5187 89.7247 23.1375 89.7997 24L90.1185 27.75H87.7935L87.5122 24.5437C87.4747 24.0687 87.381 23.7 87.231 23.4375C87.0935 23.175 86.8747 22.9937 86.5747 22.8937C86.2872 22.7937 85.8872 22.7437 85.3747 22.7437H83.481V27.75H81.156ZM83.481 20.6062H85.3185C86.0435 20.6062 86.5935 20.4312 86.9685 20.0812C87.356 19.7312 87.5497 19.2312 87.5497 18.5812C87.5497 17.9312 87.356 17.4375 86.9685 17.1C86.5935 16.75 86.0435 16.575 85.3185 16.575H83.481V20.6062ZM90.4675 27.75L94.255 14.4375H97.1425L100.93 27.75H98.5487L95.6987 17.0625L92.8487 27.75H90.4675ZM92.7925 24.6L93.43 22.5187H97.9675L98.605 24.6H92.7925Z" fill="white"/>
<path d="M22.75 10.3884L35.6823 0.75L37.4782 2.10547L25.5443 11H39.75V13.25H20.5V0H22.75V10.3884Z" fill="white"/>
<path d="M17 17.3616L4.06763 27L2.27173 25.6445L14.2058 16.75H0V14.5H19.25V27.75H17V17.3616Z" fill="white"/>
</g>
<defs>
<clipPath id="clip0_897_37">
<rect width="101" height="28" fill="white"/>
</clipPath>
</defs>
</svg>
