<svg width="192" height="193" viewBox="0 0 192 193" fill="none" xmlns="http://www.w3.org/2000/svg">
<g clip-path="url(#clip0_1967_1395)">
<mask id="path-1-inside-1_1967_1395">
<path d="M90.0817 0.150558C68.7259 2.60741 50.205 15.761 40.869 35.0757C37.9585 41.1234 35.8797 48.0403 35.1615 54.277L34.8969 56.4314L27.4508 56.507L19.9668 56.6204L23.0662 62.8571C26.6192 70.1142 28.7359 73.4405 32.1755 77.1446L34.6323 79.7905V110.936V142.081L31.9487 144.689C29.1139 147.486 26.468 151.379 25.2207 154.554C23.482 159.052 23.293 161.282 23.293 177.762V193.259H96.9987H170.704V177.762C170.704 165.024 170.591 161.698 170.1 159.317C168.928 153.647 166.206 148.771 161.86 144.5L159.365 142.081V110.936V79.7905L161.595 77.4092C165.186 73.5538 167.265 70.3032 170.742 63.235L174.031 56.6204L166.584 56.507L159.138 56.4314L158.647 53.1053C153.922 20.07 123.117 -3.70482 90.0817 0.150558ZM106.637 12.0191C110.568 12.8506 114.197 13.9845 117.712 15.4965L120.849 16.8572L119.829 17.9155C118.468 19.3518 114.272 21.4685 111.815 21.9977C109.094 22.5646 84.8656 22.5646 82.1819 21.9977C79.6873 21.4685 76.4745 19.8432 74.5468 18.1801L73.0727 16.895L76.2477 15.4965C81.1614 13.4176 85.5459 12.208 91.896 11.3009C94.1638 10.9607 104.067 11.4521 106.637 12.0191ZM66.3447 25.9286C69.4063 28.8769 72.6947 30.8046 77.1548 32.3165C80.1409 33.3748 81.1992 33.526 85.9617 33.6772L91.329 33.8662V39.4602V45.0921H79.9897H68.6503V48.5317C68.6503 51.4043 68.4991 52.2359 67.8188 53.4832C66.2691 56.2425 65.4375 56.4314 55.2321 56.4314C47.4836 56.4314 46.3496 56.3559 46.3496 55.8645C46.3496 54.5415 47.597 49.2121 48.6553 45.9993C50.961 38.9311 54.7407 32.6566 60.108 27.0626C61.9223 25.1349 63.5476 23.5474 63.661 23.5474C63.7744 23.5474 64.9839 24.6057 66.3447 25.9286ZM133.889 27.0626C139.257 32.6566 143.036 38.9311 145.342 45.9993C146.4 49.2121 147.648 54.5415 147.648 55.8645C147.648 56.3559 146.514 56.4314 138.727 56.4314C130.185 56.4314 129.732 56.3936 128.295 55.5999C126.027 54.3148 125.347 52.6517 125.347 48.4939V45.0921H114.008H102.668V39.4224V33.7528H106.826C115.633 33.7528 122.89 30.9179 128.182 25.4751C129.202 24.4167 130.147 23.5474 130.298 23.5474C130.45 23.5474 132.075 25.1349 133.889 27.0626ZM91.329 62.1011V67.7708H96.9987H102.668V62.1011V56.4314H108.829H114.953L115.784 58.2457C117.485 61.9121 121.303 65.3139 125.536 66.8636C127.199 67.4684 129.051 67.5818 141.146 67.7708L154.905 67.9598L153.053 69.8119C150.558 72.3821 147.95 74.272 144.775 75.8595C140.39 78.0518 137.215 78.7699 130.941 78.9967L125.423 79.2235L125.271 90.2227C125.082 102.772 124.931 103.527 122.059 109.348C120.584 112.297 119.677 113.506 117.031 116.152C113.403 119.781 110.908 121.368 106.146 123.182L102.857 124.43L102.744 136.147L102.668 147.902H108.754H114.839L106.108 154.895C101.308 158.75 97.2254 161.887 96.9987 161.887C96.7719 161.887 92.6897 158.75 87.8894 154.895L79.1581 147.902H85.2436H91.329L91.2534 136.147L91.14 124.43L87.9272 123.22C79.0069 119.856 72.8837 113.506 69.8977 104.624C68.9149 101.675 68.8771 101.335 68.7259 90.4117L68.5747 79.2235L63.0563 78.9967C56.6684 78.7699 53.6824 78.0518 49.0333 75.7083C45.8583 74.1208 41.9273 71.1726 40.1886 69.0559L39.1303 67.7708H52.0949C65.8533 67.7708 67.1006 67.6196 70.8048 65.8431C73.2617 64.6714 77.0036 60.8538 78.1376 58.3969L79.0447 56.4314H85.168H91.329V62.1011ZM48.8065 87.9548C50.2806 88.4462 52.7753 89.1265 54.4006 89.5045L57.311 90.1471V94.6828C57.311 97.1397 57.5 100.428 57.7268 101.902C59.3521 112.939 65.7021 123.069 74.887 129.192C76.5501 130.288 78.3644 131.422 78.9691 131.687C79.9141 132.103 79.9897 132.329 79.9897 134.37V136.563H64.7194C56.3283 136.563 48.6931 136.676 47.7104 136.79L45.9717 137.054V112.032C45.9717 98.3114 46.0095 87.0476 46.0851 87.0476C46.1229 87.0476 47.3702 87.4634 48.8065 87.9548ZM148.026 112.032V137.054L146.287 136.79C145.304 136.676 137.669 136.563 129.278 136.563H114.008V134.333C114.008 132.367 114.121 132.027 114.801 131.838C116.313 131.347 122.172 127.151 124.478 124.883C130.828 118.684 134.985 110.52 136.271 101.902C136.497 100.428 136.686 97.1397 136.686 94.645V90.1093L138.879 89.6935C140.05 89.4667 142.469 88.7863 144.246 88.2194C146.022 87.6146 147.572 87.1232 147.761 87.0854C147.912 87.0854 148.026 98.3114 148.026 112.032ZM74.2822 158.523C81.5772 164.382 87.5492 169.296 87.5492 169.447C87.5492 169.598 84.1096 172.508 79.9519 175.835L72.3167 181.92H53.4934H34.6323V172.66C34.6323 167.33 34.8213 162.605 35.0481 161.434C35.7663 158.107 37.2404 155.462 39.735 153.005C43.7794 148.998 46.8788 147.978 55.2699 147.94L60.9774 147.902L74.2822 158.523ZM145.833 148.318C152.297 149.679 157.551 154.932 158.949 161.434C159.176 162.605 159.365 167.217 159.365 172.66V181.92H124.931H90.4974L111.74 164.911L132.982 147.902H138.425C141.411 147.902 144.737 148.091 145.833 148.318Z"/>
</mask>
<path d="M90.0817 0.150558C68.7259 2.60741 50.205 15.761 40.869 35.0757C37.9585 41.1234 35.8797 48.0403 35.1615 54.277L34.8969 56.4314L27.4508 56.507L19.9668 56.6204L23.0662 62.8571C26.6192 70.1142 28.7359 73.4405 32.1755 77.1446L34.6323 79.7905V110.936V142.081L31.9487 144.689C29.1139 147.486 26.468 151.379 25.2207 154.554C23.482 159.052 23.293 161.282 23.293 177.762V193.259H96.9987H170.704V177.762C170.704 165.024 170.591 161.698 170.1 159.317C168.928 153.647 166.206 148.771 161.86 144.5L159.365 142.081V110.936V79.7905L161.595 77.4092C165.186 73.5538 167.265 70.3032 170.742 63.235L174.031 56.6204L166.584 56.507L159.138 56.4314L158.647 53.1053C153.922 20.07 123.117 -3.70482 90.0817 0.150558ZM106.637 12.0191C110.568 12.8506 114.197 13.9845 117.712 15.4965L120.849 16.8572L119.829 17.9155C118.468 19.3518 114.272 21.4685 111.815 21.9977C109.094 22.5646 84.8656 22.5646 82.1819 21.9977C79.6873 21.4685 76.4745 19.8432 74.5468 18.1801L73.0727 16.895L76.2477 15.4965C81.1614 13.4176 85.5459 12.208 91.896 11.3009C94.1638 10.9607 104.067 11.4521 106.637 12.0191ZM66.3447 25.9286C69.4063 28.8769 72.6947 30.8046 77.1548 32.3165C80.1409 33.3748 81.1992 33.526 85.9617 33.6772L91.329 33.8662V39.4602V45.0921H79.9897H68.6503V48.5317C68.6503 51.4043 68.4991 52.2359 67.8188 53.4832C66.2691 56.2425 65.4375 56.4314 55.2321 56.4314C47.4836 56.4314 46.3496 56.3559 46.3496 55.8645C46.3496 54.5415 47.597 49.2121 48.6553 45.9993C50.961 38.9311 54.7407 32.6566 60.108 27.0626C61.9223 25.1349 63.5476 23.5474 63.661 23.5474C63.7744 23.5474 64.9839 24.6057 66.3447 25.9286ZM133.889 27.0626C139.257 32.6566 143.036 38.9311 145.342 45.9993C146.4 49.2121 147.648 54.5415 147.648 55.8645C147.648 56.3559 146.514 56.4314 138.727 56.4314C130.185 56.4314 129.732 56.3936 128.295 55.5999C126.027 54.3148 125.347 52.6517 125.347 48.4939V45.0921H114.008H102.668V39.4224V33.7528H106.826C115.633 33.7528 122.89 30.9179 128.182 25.4751C129.202 24.4167 130.147 23.5474 130.298 23.5474C130.45 23.5474 132.075 25.1349 133.889 27.0626ZM91.329 62.1011V67.7708H96.9987H102.668V62.1011V56.4314H108.829H114.953L115.784 58.2457C117.485 61.9121 121.303 65.3139 125.536 66.8636C127.199 67.4684 129.051 67.5818 141.146 67.7708L154.905 67.9598L153.053 69.8119C150.558 72.3821 147.95 74.272 144.775 75.8595C140.39 78.0518 137.215 78.7699 130.941 78.9967L125.423 79.2235L125.271 90.2227C125.082 102.772 124.931 103.527 122.059 109.348C120.584 112.297 119.677 113.506 117.031 116.152C113.403 119.781 110.908 121.368 106.146 123.182L102.857 124.43L102.744 136.147L102.668 147.902H108.754H114.839L106.108 154.895C101.308 158.75 97.2254 161.887 96.9987 161.887C96.7719 161.887 92.6897 158.75 87.8894 154.895L79.1581 147.902H85.2436H91.329L91.2534 136.147L91.14 124.43L87.9272 123.22C79.0069 119.856 72.8837 113.506 69.8977 104.624C68.9149 101.675 68.8771 101.335 68.7259 90.4117L68.5747 79.2235L63.0563 78.9967C56.6684 78.7699 53.6824 78.0518 49.0333 75.7083C45.8583 74.1208 41.9273 71.1726 40.1886 69.0559L39.1303 67.7708H52.0949C65.8533 67.7708 67.1006 67.6196 70.8048 65.8431C73.2617 64.6714 77.0036 60.8538 78.1376 58.3969L79.0447 56.4314H85.168H91.329V62.1011ZM48.8065 87.9548C50.2806 88.4462 52.7753 89.1265 54.4006 89.5045L57.311 90.1471V94.6828C57.311 97.1397 57.5 100.428 57.7268 101.902C59.3521 112.939 65.7021 123.069 74.887 129.192C76.5501 130.288 78.3644 131.422 78.9691 131.687C79.9141 132.103 79.9897 132.329 79.9897 134.37V136.563H64.7194C56.3283 136.563 48.6931 136.676 47.7104 136.79L45.9717 137.054V112.032C45.9717 98.3114 46.0095 87.0476 46.0851 87.0476C46.1229 87.0476 47.3702 87.4634 48.8065 87.9548ZM148.026 112.032V137.054L146.287 136.79C145.304 136.676 137.669 136.563 129.278 136.563H114.008V134.333C114.008 132.367 114.121 132.027 114.801 131.838C116.313 131.347 122.172 127.151 124.478 124.883C130.828 118.684 134.985 110.52 136.271 101.902C136.497 100.428 136.686 97.1397 136.686 94.645V90.1093L138.879 89.6935C140.05 89.4667 142.469 88.7863 144.246 88.2194C146.022 87.6146 147.572 87.1232 147.761 87.0854C147.912 87.0854 148.026 98.3114 148.026 112.032ZM74.2822 158.523C81.5772 164.382 87.5492 169.296 87.5492 169.447C87.5492 169.598 84.1096 172.508 79.9519 175.835L72.3167 181.92H53.4934H34.6323V172.66C34.6323 167.33 34.8213 162.605 35.0481 161.434C35.7663 158.107 37.2404 155.462 39.735 153.005C43.7794 148.998 46.8788 147.978 55.2699 147.94L60.9774 147.902L74.2822 158.523ZM145.833 148.318C152.297 149.679 157.551 154.932 158.949 161.434C159.176 162.605 159.365 167.217 159.365 172.66V181.92H124.931H90.4974L111.74 164.911L132.982 147.902H138.425C141.411 147.902 144.737 148.091 145.833 148.318Z" stroke-width="3.07182" stroke-dasharray="3.07 3.07" mask="url(#path-1-inside-1_1967_1395)"/>
<path d="M114.016 97.8447C114.135 96.6076 113.483 96.4969 110.514 96.4951V97.2617C109.88 97.2613 109.195 97.2656 108.339 97.2656L106.872 97.2695L106.868 96.502C105.506 96.5091 104.57 96.5299 103.935 96.5771L103.992 97.3418C103.752 97.3597 103.571 97.3805 103.438 97.4033C103.429 97.4047 103.421 97.4078 103.413 97.4092C103.36 97.8409 103.217 98.2832 103.03 98.6982L102.33 98.3828L102.327 98.3818C101.979 99.1557 101.398 99.9742 100.743 100.601H100.744L101.275 101.155C100.884 101.53 100.448 101.862 99.9951 102.095L99.9941 102.096L99.6289 102.272C99.2659 102.438 98.9063 102.573 98.5479 102.674L98.3398 101.935L98.3389 101.934C97.3889 102.201 96.4946 102.187 95.5664 101.897V101.898L95.3379 102.631C94.9799 102.519 94.6232 102.373 94.2656 102.196L93.9072 102.009L93.9004 102.005C93.4694 101.762 93.0566 101.435 92.6826 101.071L93.2188 100.521C92.5741 99.895 92.0095 99.0972 91.6689 98.3506L91.667 98.3516L90.9678 98.6709C90.7824 98.2647 90.6388 97.8313 90.585 97.4092C90.5773 97.4078 90.5697 97.4047 90.5615 97.4033C90.4278 97.3805 90.2476 97.3597 90.0068 97.3418L90.0625 96.5771C89.4268 96.5299 88.4912 96.5091 87.1289 96.502L87.126 97.2695C86.6845 97.2672 86.1974 97.2656 85.6602 97.2656C85.103 97.2656 84.6006 97.266 84.1484 97.2676L84.1465 96.501C82.6918 96.5059 81.7443 96.5214 81.1279 96.5732H81.1289L81.1934 97.3379C81.003 97.3539 80.8641 97.3747 80.7627 97.3936C80.7769 97.7586 80.8418 98.2619 80.959 98.8584L80.2061 99.0068C80.4088 100.039 80.7377 101.251 81.1221 102.356L81.1436 102.417L81.8682 102.163C82.0198 102.595 82.1787 103.005 82.3389 103.374L82.499 103.729L82.501 103.733C82.6642 104.084 82.8742 104.458 83.125 104.847L82.4795 105.263C82.9438 105.983 83.5247 106.726 84.1729 107.447L84.7432 106.935C85.332 107.59 85.9797 108.229 86.6465 108.811L86.1416 109.389C86.87 110.024 87.6208 110.595 88.3467 111.057L88.7588 110.409C89.1494 110.658 89.5261 110.868 89.8799 111.035C90.3763 111.269 90.8782 111.477 91.3838 111.659L91.124 112.38C92.2068 112.77 93.3074 113.049 94.4131 113.219L94.5293 112.461C95.6088 112.626 96.6933 112.683 97.7676 112.632L97.8027 113.397C98.9365 113.344 100.06 113.176 101.16 112.897L100.973 112.154C102.015 111.89 103.036 111.52 104.02 111.047L104.351 111.738C105.359 111.254 106.33 110.665 107.251 109.976L106.794 109.362C107.224 109.04 107.643 108.695 108.05 108.326C108.329 108.07 108.611 107.78 108.892 107.461L109.467 107.966C110.008 107.35 110.533 106.645 111.019 105.891L110.374 105.476C110.821 104.781 111.234 104.043 111.596 103.296L112.286 103.63C112.675 102.826 113.004 102.012 113.255 101.227L112.525 100.993C112.655 100.587 112.761 100.192 112.841 99.8154C113.053 98.8169 113.209 98.215 113.252 97.7705L114.016 97.8447Z" stroke="white" stroke-width="1.53591" stroke-dasharray="3.07 3.07"/>
</g>
<defs>
<clipPath id="clip0_1967_1395">
<rect width="192" height="193" />
</clipPath>
</defs>
</svg>
