<svg width="192" height="193" viewBox="0 0 192 193" fill="none" xmlns="http://www.w3.org/2000/svg">
<g clip-path="url(#clip0_1978_2130)">
<path d="M94.623 1.32886C95.5981 1.28758 96.5707 1.27025 97.5391 1.2771L97.5479 0.0427246L97.5488 -0.25708C96.5556 -0.264099 95.5587 -0.246689 94.5586 -0.204346L94.623 1.32886ZM103.521 0.0808105C102.532 -0.0242615 101.538 -0.104904 100.539 -0.161377L100.522 0.150146L100.453 1.36987C101.426 1.42493 102.396 1.50381 103.359 1.6062L103.521 0.0808105ZM88.7324 1.86987C89.2387 1.79881 89.7471 1.73418 90.2568 1.67554H90.2598C90.745 1.6189 91.2297 1.56766 91.7139 1.52319L91.5732 -0.00512695C91.0767 0.0404663 90.5796 0.0920715 90.082 0.150146C89.5595 0.210266 89.0386 0.278458 88.5195 0.351318L88.7324 1.86987ZM109.432 1.00464C108.457 0.802856 107.475 0.623886 106.487 0.469482L106.251 1.98608C107.214 2.13657 108.171 2.30994 109.121 2.50659L109.432 1.00464ZM82.7021 3.02612C83.6937 2.784 84.694 2.56607 85.7021 2.3728L85.4131 0.866943C84.3798 1.06505 83.3543 1.28673 82.3379 1.53491L82.7021 3.02612ZM115.224 2.50073C114.272 2.205 113.313 1.93137 112.346 1.6814L112.154 2.42358L111.962 3.16772C112.905 3.41142 113.841 3.67723 114.769 3.96558L115.224 2.50073ZM76.8174 4.78101C77.7806 4.44028 78.7542 4.12291 79.7373 3.82983L79.5166 3.09448L79.5176 3.09351L79.2979 2.35913C78.29 2.65961 77.2922 2.98538 76.3047 3.33472L76.3486 3.45581L76.8174 4.78101ZM120.844 4.54956C119.925 4.1635 118.996 3.79893 118.058 3.45679L117.533 4.89917C118.448 5.23274 119.354 5.5882 120.25 5.9646L120.844 4.54956ZM71.1387 7.11694C72.0633 6.68083 73.0003 6.26775 73.9482 5.87769L73.4473 4.65991L73.3643 4.45972C72.3922 4.8597 71.4316 5.28302 70.4834 5.73022L71.1387 7.11694ZM126.242 7.12769C125.364 6.65576 124.474 6.20427 123.573 5.77417L123.243 6.46558L122.913 7.15894C123.792 7.57841 124.66 8.01897 125.517 8.47925L126.242 7.12769ZM65.7246 10.0125C66.6014 9.48517 67.4921 8.97995 68.3955 8.49683L68.0322 7.82007L68.0332 7.81909L67.6709 7.14331C66.7445 7.6387 65.8316 8.1573 64.9326 8.698L65.0332 8.86304L65.7246 10.0125ZM131.372 10.2048C130.542 9.65202 129.699 9.11847 128.844 8.60522L128.449 9.26245L128.055 9.92163C128.889 10.4224 129.712 10.9428 130.521 11.4822L131.372 10.2048ZM90.5557 11.5017C90.9928 11.4332 91.439 11.3658 91.8955 11.3005C92.2972 11.2403 92.9388 11.2074 93.7363 11.1951V11.1931L93.7129 9.65796C92.909 9.67033 92.1791 9.70433 91.668 9.78101C91.2085 9.84669 90.7584 9.91399 90.3174 9.98315L90.5557 11.5017ZM101.128 11.4314L101.228 9.89819C100 9.81844 98.713 9.75464 97.4893 9.71167L97.4355 11.2468L97.4346 11.2478C98.643 11.2902 99.9145 11.3536 101.127 11.4324L101.128 11.4314ZM108.056 12.3347L108.406 10.8396C107.927 10.727 107.443 10.6186 106.955 10.5154L106.954 10.5164C106.447 10.4054 105.757 10.3058 104.986 10.2185L104.813 11.7449L104.812 11.7478C105.578 11.8345 106.209 11.924 106.637 12.0183C107.114 12.1192 107.586 12.2258 108.055 12.3357L108.056 12.3347ZM60.6289 13.4382C61.4487 12.825 62.2841 12.2321 63.1338 11.6609L62.4697 10.6736L62.2764 10.3884C61.4056 10.9738 60.5501 11.5813 59.71 12.2097L60.6289 13.4382ZM85.2383 12.53C86.091 12.3287 86.9704 12.1413 87.8877 11.9656V11.9636L87.5986 10.4548C86.6617 10.6343 85.7608 10.8263 84.8857 11.033L85.2383 12.5281V12.53ZM113.644 13.9314L114.139 12.4773C113.202 12.1583 112.253 11.8622 111.29 11.5876L110.869 13.0642L110.868 13.0662C111.593 13.2728 112.309 13.4904 113.018 13.7224L113.644 13.9314ZM80.0381 14.0349C80.8899 13.7402 81.7448 13.4662 82.6182 13.2136L82.1924 11.738C81.293 11.9981 80.4116 12.2786 79.5352 12.5818L80.0381 14.033V14.0349ZM136.189 13.7517C135.415 13.123 134.625 12.5131 133.822 11.9216L132.913 13.157C133.697 13.7341 134.467 14.3297 135.223 14.9431L136.189 13.7517ZM118.496 15.8357L118.739 15.2742L119.107 14.4265L118.323 14.0867L118.318 14.0847C117.861 13.8879 117.401 13.697 116.939 13.5125L116.369 14.9392C116.597 15.0303 116.825 15.1224 117.052 15.2166L117.712 15.4958L118.495 15.8367L118.496 15.8357ZM76.248 15.4958C76.6685 15.3179 77.0857 15.1477 77.5 14.9822V14.9802L77.248 14.3474L76.9307 13.5535C76.5059 13.7231 76.0793 13.899 75.6494 14.0808L75.6387 14.0857L75.6289 14.0896L74.835 14.4392L75.4541 15.8455L76.248 15.4958ZM55.9033 17.3591C56.6577 16.6661 57.4293 15.992 58.2168 15.3386L57.2363 14.158C56.429 14.8279 55.6377 15.5177 54.8643 16.2283L55.1299 16.5164L55.9033 17.3591ZM118.844 20.5896C119.642 20.0909 120.404 19.5372 120.934 18.9812L121.189 18.7166L120.38 17.9373L120.692 17.2166L121.699 18.1873L121.955 17.9226L123.492 16.3289L120.676 15.1072L120.36 15.8328L120.191 16.2234L119.743 15.7898L119.488 16.0544L119.887 16.4402L120.849 16.8562L119.828 17.9148C119.432 18.3334 118.793 18.8079 118.028 19.2859L118.03 19.2878L118.844 20.5896ZM76.2793 19.4529C75.6384 19.0436 75.0489 18.6125 74.5469 18.1794L73.0723 16.8943L74.125 16.4314L74.4502 16.0574L74.082 15.7361L73.7012 16.1726L73.2471 15.1384L72.4531 15.489L70.2412 16.4626L72.4316 18.3728L73.29 17.3894L73.6914 18.2996L73.8564 18.2273L73.1689 19.0154L73.5371 19.3367L73.5439 19.3425C74.112 19.8326 74.7628 20.3061 75.4531 20.7468L76.2793 19.4529ZM140.652 17.7371C139.94 17.038 139.212 16.3564 138.468 15.6921L137.957 16.2634L137.445 16.8367C138.171 17.4847 138.882 18.1498 139.577 18.8318L140.652 17.7371ZM51.5977 21.7351C52.2787 20.9692 52.9782 20.2217 53.6953 19.4929L52.6016 18.4177C51.8666 19.1647 51.1493 19.9306 50.4512 20.7156L51.5977 21.7351ZM144.719 22.1248C144.076 21.3613 143.415 20.6137 142.737 19.8826L142.175 20.4031L141.611 20.9255C142.272 21.6388 142.918 22.3683 143.545 23.113L144.719 22.1248ZM110.455 23.6853C110.961 23.6511 111.427 23.6103 111.795 23.5574L112.129 23.5007L112.139 23.4988C112.878 23.3395 113.708 23.0678 114.536 22.7429L113.976 21.3132L113.975 21.3123C113.192 21.6192 112.446 21.8609 111.815 21.9968C111.537 22.0548 111.033 22.106 110.351 22.1521L110.352 22.1531L110.455 23.6853ZM83.6455 22.1541C82.9612 22.1078 82.4575 22.0551 82.1816 21.9968C81.532 21.859 80.8338 21.6465 80.1221 21.3787L79.5811 22.8162C80.3492 23.1052 81.1231 23.3428 81.8633 23.4998C82.2592 23.5834 82.866 23.6405 83.542 23.6863L83.6455 22.1541ZM62.7305 24.3787C63.1869 23.9342 63.5082 23.6395 63.6221 23.5652L63.6611 23.5466C63.7114 23.5469 63.9728 23.7537 64.3672 24.0964L64.3682 24.0955L65.376 22.9353C65.1701 22.7564 64.9816 22.5985 64.8281 22.4792C64.7545 22.422 64.6657 22.3555 64.5752 22.2966C64.5322 22.2687 64.4589 22.2228 64.3691 22.1785C64.3494 22.1685 64.0557 22.0105 63.6611 22.0105C63.326 22.0105 63.0792 22.1219 63.0244 22.1462C62.9299 22.1882 62.8572 22.2318 62.8174 22.2566C62.7353 22.3076 62.6663 22.3602 62.625 22.3923C62.5362 22.4615 62.4412 22.5435 62.3525 22.6228C62.1689 22.787 61.931 23.0124 61.6592 23.2771L62.7305 24.3787ZM131.248 24.365L132.313 23.2595C132.041 22.9974 131.798 22.7706 131.604 22.6033C131.511 22.5224 131.406 22.4348 131.304 22.3601C131.255 22.3247 131.175 22.2697 131.079 22.2166C131.031 22.19 130.953 22.1485 130.853 22.1111C130.771 22.0807 130.568 22.0106 130.299 22.0105C130.013 22.0105 129.795 22.0901 129.711 22.1228C129.605 22.1642 129.519 22.2095 129.464 22.241C129.353 22.3042 129.254 22.3741 129.183 22.4275C129.034 22.5384 128.869 22.6771 128.706 22.821L129.725 23.9705V23.9724C129.98 23.7458 130.17 23.5953 130.261 23.5564L130.299 23.5466C130.366 23.5477 130.718 23.8573 131.247 24.3669L131.248 24.365ZM89.5811 22.3601C88.5169 22.3408 87.5187 22.3143 86.6172 22.2859V22.2888L86.5693 23.824C87.4791 23.8527 88.4844 23.8768 89.5537 23.8962L89.5811 22.3601ZM104.444 23.8953C105.513 23.8758 106.518 23.8517 107.428 23.823L107.379 22.2878L107.378 22.2859C106.476 22.3143 105.479 22.3397 104.415 22.3591L104.416 22.3601L104.418 22.4792L104.444 23.8953ZM95.5098 23.9558L95.5146 22.4197C94.5101 22.4166 93.5145 22.4096 92.5459 22.4001L92.5312 23.9373C93.5033 23.9468 94.5022 23.9527 95.5098 23.9558ZM101.466 23.9363L101.458 23.1697L101.459 23.1687L101.451 22.4011L101.45 22.4001C100.482 22.4097 99.4859 22.4155 98.4814 22.4187L98.4824 22.4197L98.4873 23.9558C99.4949 23.9527 100.494 23.9458 101.466 23.9363ZM47.7539 26.5232C48.3549 25.6921 48.9756 24.8775 49.6152 24.0808L48.4189 23.1208C47.7632 23.9377 47.1259 24.7717 46.5098 25.6238L47.1318 26.073L47.7539 26.5232ZM127.126 26.5007C127.486 26.1695 127.838 25.8277 128.182 25.4744C128.352 25.2974 128.523 25.1279 128.687 24.9646L128.685 24.9617L127.599 23.8757C127.429 24.0458 127.253 24.2243 127.076 24.408C126.754 24.7391 126.424 25.0606 126.087 25.3708L127.126 26.5007ZM67.5146 26.9949L68.5176 25.8308C68.1451 25.5098 67.7763 25.1736 67.4102 24.821L67.4092 24.822C67.1842 24.6033 66.964 24.3905 66.751 24.1892L65.6963 25.3064L65.6934 25.3093C65.9027 25.5072 66.1233 25.7122 66.3447 25.9275C66.7305 26.299 67.1188 26.6556 67.5137 26.9958L67.5146 26.9949ZM148.351 26.8777C147.783 26.0561 147.196 25.2495 146.591 24.4578L145.982 24.9226L145.372 25.3894C145.962 26.1616 146.534 26.9486 147.088 27.7498L148.351 26.8777ZM134.843 28.0808L135.978 27.0457C135.657 26.694 135.33 26.3451 134.998 25.9988C134.701 25.6835 134.409 25.3769 134.128 25.0847L133.021 26.1501L133.021 26.1511C133.301 26.4422 133.593 26.7466 133.89 27.0613C134.213 27.3985 134.53 27.7396 134.842 28.0818L134.843 28.0808ZM59.1543 28.0808C59.4664 27.7386 59.7848 27.3986 60.1084 27.0613C60.4028 26.7485 60.6929 26.4455 60.9717 26.156L60.9707 26.155L59.8643 25.0906C59.5816 25.3842 59.2877 25.6924 58.9893 26.0095C58.6607 26.3522 58.3368 26.6978 58.0195 27.0457L59.1543 28.0808ZM122.381 29.9636C123.236 29.4772 124.06 28.9457 124.852 28.3679L124.44 27.8025L123.947 27.1277C123.203 27.6711 122.428 28.1718 121.623 28.6296L122.002 29.2976L122.381 29.9636ZM72.9443 30.1531L73.46 29.1306C72.5517 28.6725 71.6987 28.1766 70.8848 27.6335L70.0332 28.9109C70.9008 29.4898 71.8079 30.0156 72.7695 30.5007L72.9443 30.1531ZM44.4111 31.6736C44.926 30.7856 45.4618 29.9128 46.0176 29.0564L44.7295 28.2214C44.1596 29.0996 43.6109 29.9945 43.083 30.905L44.4111 31.6736ZM55.6201 32.3972C56.1659 31.6513 56.7355 30.9164 57.3291 30.1921L56.1416 29.2166C55.5303 29.9623 54.9435 30.7201 54.3809 31.489L55.6201 32.3972ZM138.377 32.3962L139.616 31.489C139.054 30.7201 138.467 29.9622 137.855 29.2166L136.668 30.1912L136.667 30.1921C137.261 30.9164 137.83 31.6513 138.376 32.3972L138.377 32.3962ZM151.511 31.9578C151.024 31.085 150.518 30.2253 149.992 29.3796L149.341 29.7839L148.688 30.1902C149.202 31.0148 149.696 31.8528 150.17 32.7039L151.511 31.9578ZM116.986 32.2937C117.935 31.9982 118.855 31.6581 119.746 31.2742L119.596 30.9226L119.14 29.865C118.298 30.2273 117.428 30.5489 116.53 30.8289L116.768 31.5886L116.986 32.2937ZM79.6855 31.5154C79.0996 31.3585 78.4709 31.1525 77.668 30.8679L77.6582 30.864L77.6475 30.8611C77.1542 30.6939 76.6775 30.5219 76.2158 30.3445L75.665 31.7781C75.8844 31.8624 76.1067 31.9454 76.332 32.0271L77.1553 32.3152C77.9724 32.6048 78.6452 32.8264 79.2891 32.9988L79.6855 31.5154ZM111.232 33.4998C112.225 33.3834 113.193 33.2266 114.138 33.03L113.825 31.5281C112.927 31.7151 112.003 31.8641 111.055 31.9753L111.232 33.4998ZM87.3037 33.7234L87.3574 32.1882L86.0156 32.1414H86.0107C85.1586 32.1143 84.4331 32.0871 83.7979 32.0554L83.752 32.9539L83.7207 33.5867C83.9184 33.5965 84.1241 33.6089 84.3389 33.6179L87.3027 33.7244L87.3037 33.7234ZM106.826 33.7517C107.322 33.7517 107.812 33.7423 108.298 33.7244L108.242 32.1902C107.776 32.2074 107.303 32.2156 106.826 32.2156H105.787V33.7517H106.826ZM102.668 33.7517H103.708V32.2156H101.133V35.1697H102.668V33.7517ZM92.8652 35.2634V32.3826L90.041 32.283L89.9873 33.8181L91.3291 33.865V35.2634H92.8652ZM41.5645 37.2234C41.788 36.7245 42.0173 36.2306 42.252 35.7429L42.5908 35.0535C42.7052 34.8242 42.8205 34.5954 42.9375 34.3679L41.6846 33.7234L41.5732 33.6667C41.4864 33.8354 41.3989 34.0039 41.3135 34.1736L40.8691 35.075C40.6278 35.5764 40.3946 36.0849 40.165 36.5974L41.5645 37.2234ZM52.5879 37.0779C53.0464 36.2712 53.5307 35.4773 54.0381 34.6941L54.0371 34.6931L53.3926 34.2751L53.3916 34.2761L52.748 33.8582C52.2247 34.666 51.7261 35.4857 51.2529 36.3181L52.5879 37.0779ZM141.409 37.0779L142.744 36.3181C142.271 35.4857 141.772 34.666 141.249 33.8582L140.604 34.2761L139.96 34.6931L139.959 34.6941C140.466 35.4774 140.95 36.2721 141.408 37.0789L141.409 37.0779ZM154.165 37.3181C153.765 36.4016 153.344 35.4972 152.902 34.6052L152.216 34.9451L151.528 35.2859C151.959 36.1555 152.369 37.038 152.759 37.9314L154.165 37.3181ZM102.668 38.0046H101.133V40.8386H102.668V38.0046ZM91.3291 40.8669H92.8652V38.0613H91.3291V40.8669ZM50.1191 42.0789C50.4822 41.2211 50.87 40.376 51.2812 39.5427L49.9043 38.8621C49.4798 39.7222 49.0797 40.5951 48.7051 41.4802L50.1191 42.0789ZM143.878 42.0789L145.292 41.4802C144.917 40.5951 144.518 39.7222 144.094 38.8621L142.716 39.5417L142.715 39.5427C143.126 40.3763 143.514 41.2217 143.877 42.0798L143.878 42.0789ZM39.2031 43.3279C39.5441 42.2917 39.9124 41.2612 40.3057 40.2439L38.874 39.6912C38.4713 40.733 38.0963 41.7884 37.7471 42.8494L39.2031 43.3279ZM156.284 42.9119C155.976 41.9599 155.645 41.0187 155.293 40.0886L153.858 40.6326C154.202 41.5391 154.525 42.4567 154.825 43.3845L156.284 42.9119ZM102.668 45.0916V43.6736H101.133V46.6267H104.086V45.0916H102.668ZM91.3291 45.0916H89.9111V46.6267H92.8652V43.6833H91.3291V45.0916ZM48.2764 47.2097C48.4037 46.7834 48.5309 46.3765 48.6553 45.9988C48.7998 45.5558 48.9494 45.1153 49.1055 44.6785L47.6602 44.1609C47.4996 44.6102 47.3449 45.0629 47.1963 45.5183C47.0668 45.9114 46.9352 46.3315 46.8047 46.7683L48.2764 47.2097ZM145.721 47.2087L146.456 46.989L147.192 46.7683C147.062 46.3315 146.93 45.9114 146.801 45.5183C146.652 45.0629 146.497 44.6101 146.337 44.1609L144.891 44.6785C145.047 45.1154 145.197 45.5556 145.342 45.9988C145.466 46.3764 145.592 46.7835 145.72 47.2097L145.721 47.2087ZM109.756 46.6267V45.0916H106.921V46.6267H109.756ZM114.008 46.6267V45.0916H112.59V46.6267H114.008ZM115.425 46.6267V45.0916H114.008V46.6267H115.425ZM121.095 46.6267V45.0916H118.26V46.6267H121.095ZM125.347 46.6267V45.0916H123.812V45.9421H123.93V46.6267H125.347ZM87.0771 46.6267V45.0916H84.2422V46.6267H87.0771ZM81.4072 46.6267V45.0916H79.9893V46.6267H81.4072ZM79.9893 46.6267V45.0916H78.5723V46.6267H79.9893ZM75.7373 46.6267V45.0916H72.9023V46.6267H75.7373ZM70.0674 46.6267V45.9509H70.1865V45.0916H68.6504V46.6267H70.0674ZM157.848 48.6863C157.634 47.708 157.396 46.7392 157.137 45.78L155.656 46.1794C155.909 47.1143 156.14 48.0598 156.349 49.0134L157.848 48.6863ZM37.4873 49.6375C37.7124 48.5856 37.9703 47.5249 38.2598 46.4626L37.5186 46.2615L37.5195 46.2605L36.7793 46.0593C36.4825 47.1482 36.2176 48.2365 35.9863 49.3171L37.4873 49.6375ZM125.347 47.6423H123.812V48.4929C123.812 49.2804 123.834 50.0013 123.89 50.6619L125.421 50.533C125.37 49.9275 125.347 49.2517 125.347 48.4929V47.6423ZM68.6504 48.531C68.6504 49.0076 68.6429 49.428 68.6328 49.8035H68.6357L70.1719 49.8445C70.1824 49.4507 70.1865 49.0156 70.1865 48.531V47.6707H68.6504V48.531ZM46.998 52.1199C47.1765 51.3327 47.3816 50.4913 47.5996 49.6541L47.5967 49.6531L46.1104 49.2664C45.8885 50.1183 45.6793 50.9754 45.4971 51.7791L46.9951 52.1189L46.998 52.1199ZM147.002 52.1189L148.5 51.7791C148.318 50.9754 148.109 50.1184 147.887 49.2664L146.4 49.6531L146.396 49.6541C146.614 50.4913 146.82 51.3327 146.998 52.1199L147.002 52.1189ZM158.77 53.9363L158.646 53.1042C158.576 52.6083 158.498 52.1145 158.415 51.6228L156.901 51.8767C156.982 52.3563 157.057 52.8382 157.126 53.322L157.127 53.3289L157.25 54.1609L158.77 53.9363ZM67.9756 55.9412C68.339 55.5544 68.6358 55.1208 68.9014 54.6785L69.1582 54.2341L69.1621 54.2263L69.167 54.2175C69.4183 53.7568 69.6329 53.2977 69.7949 52.7673L68.3262 52.3191C68.204 52.7187 68.0384 53.0787 67.8184 53.4822C67.4966 54.055 67.2046 54.5158 66.8545 54.8884L66.8564 54.8894L67.9756 55.9412ZM36.6855 54.4636L36.6875 54.4519C36.7486 53.9211 36.82 53.3841 36.9014 52.8425L36.1406 52.7292L36.1416 52.7283L35.3848 52.616C35.3009 53.174 35.2243 53.7275 35.1611 54.2761L35.0947 54.8152L35.1836 54.8259L36.6201 55.0017L36.6855 54.4636ZM129.506 56.113V56.1111C129.04 55.9908 128.708 55.8275 128.295 55.5994C127.639 55.2275 127.116 54.8231 126.704 54.3367L126.703 54.3376L126.641 54.3904L125.532 55.3308C126.092 55.9913 126.772 56.5014 127.538 56.9353L127.545 56.9392L127.553 56.9431C128.003 57.1922 128.469 57.4317 129.122 57.6003L129.506 56.113ZM48.4092 57.1277L48.4404 56.3611C46.7147 56.2878 46.3499 56.1423 46.3496 55.864C46.3496 55.5943 46.4026 55.158 46.4941 54.6072L46.4932 54.6062L44.9775 54.3542C44.8853 54.9097 44.8135 55.4563 44.8135 55.864C44.8136 56.3401 45.0011 56.8335 45.418 57.2009C45.747 57.4909 46.1223 57.6126 46.3594 57.6746C46.8456 57.8016 47.523 57.859 48.377 57.8953L48.4092 57.1277ZM147.647 55.864C147.647 56.1425 147.282 56.2879 145.546 56.3611L145.61 57.8953C146.469 57.8591 147.148 57.8022 147.635 57.6755C147.872 57.6138 148.248 57.4917 148.578 57.2019C148.996 56.8345 149.183 56.3406 149.184 55.864C149.184 55.4563 149.112 54.9097 149.02 54.3542L147.504 54.6062L147.503 54.6072C147.594 55.158 147.647 55.5943 147.647 55.864ZM78.8174 56.9216L79.0449 56.4304H80.5752V54.8943H78.0615L77.4238 56.2781L78.8174 56.9216ZM86.708 56.4304V54.8943H83.6367V56.4304H86.708ZM91.3291 56.4304V57.8484H92.8652V54.8943H89.7891V56.4304H91.3291ZM102.668 56.4304H104.209V54.8943H101.133V57.8484H102.668V56.4304ZM110.36 56.4304V54.8943H107.289V56.4304H110.36ZM115.16 56.8845L116.557 56.2439L116.349 55.7908L115.938 54.8943H113.422V56.4304H114.952L115.16 56.8845ZM161 56.45L159.139 56.4304L159.016 55.5994L157.496 55.824L157.811 57.9529L159.123 57.9666L160.984 57.9851L161 56.45ZM36.2578 57.9529L36.4209 56.6179L36.4873 56.0789L35.7246 55.9861L34.9619 55.8923L34.8965 56.4304L33.0342 56.45L33.0508 57.9851L36.2578 57.9529ZM60.4023 57.9226C61.8427 57.8858 63.0113 57.8194 63.9697 57.6921L63.8682 56.9314L63.7676 56.1697L63.7666 56.1687C62.8895 56.2851 61.785 56.3501 60.3613 56.3865L60.3623 56.3875L60.3672 56.5916L60.4023 57.9226ZM134.766 56.4226V56.4197C133.688 56.4126 132.827 56.4027 132.126 56.3796L132.075 57.9148C132.796 57.9385 133.673 57.9507 134.756 57.9578L134.766 56.4226ZM56.9482 57.9636L56.9434 56.4285L55.2324 56.4304C54.4031 56.4304 53.6493 56.4296 52.9648 56.4275L52.9619 57.1951L52.96 57.9636C53.6466 57.9658 54.4021 57.9666 55.2324 57.9666C55.8356 57.9666 56.407 57.9654 56.9482 57.9636ZM141.009 57.9636L141.006 57.196L141.004 56.4275L138.728 56.4304C138.263 56.4304 137.822 56.4298 137.403 56.4294L137.402 57.198V57.9656C137.821 57.9659 138.263 57.9666 138.728 57.9666C139.561 57.9666 140.319 57.9658 141.009 57.9636ZM27.4736 58.0417L29.3281 58.0232L29.3125 56.488L27.4512 56.5066L25.5801 56.5349L25.6035 58.0701L27.4736 58.0417ZM168.445 56.5359L166.584 56.5066L164.722 56.488L164.707 58.0232L166.561 58.0417L168.423 58.0701L168.445 56.5359ZM20.7412 58.1785L20.8135 58.1433L21.8613 58.1267L21.8535 57.6267L22.1172 57.4949L21.8428 56.9451L21.8379 56.5916L19.9668 56.6199L20.7412 58.1785ZM174.03 56.6199L172.168 56.5925L172.163 56.9246L171.833 57.5896L172.15 57.7488L172.146 58.1267L172.938 58.1394L173.208 58.2732L174.03 56.6199ZM117.882 58.8894C117.613 58.4608 117.377 58.0289 117.178 57.5984L116.973 57.1511L115.576 57.7917L115.784 58.2449C116.013 58.7379 116.28 59.2262 116.581 59.7058L117.882 58.8894ZM77.4834 59.5447C77.748 59.1405 77.9722 58.7549 78.1377 58.3962L78.3643 57.906L77.667 57.5828L77.666 57.5837L76.9697 57.2615L76.7432 57.7527C76.6173 58.0254 76.437 58.3459 76.2021 58.7048L77.4834 59.5447ZM23.6943 64.1287L25.0693 63.4431C24.8666 63.0364 24.6583 62.6154 24.4453 62.1804L24.4414 62.1726L23.667 60.613L22.291 61.2966L23.0664 62.8562C23.2809 63.2943 23.4897 63.7183 23.6943 64.1287ZM74.0088 63.5222C74.6535 62.9333 75.2871 62.2895 75.8652 61.6355L74.7158 60.6199C74.1741 61.2327 73.5795 61.8378 72.9756 62.3894L73.6768 63.157L74.0088 63.5222ZM91.3291 63.5173H92.8652V60.6824H91.3291V63.5173ZM102.668 60.6824H101.133V63.5173H102.668V60.6824ZM170.742 63.2341L171.563 61.5808L170.877 61.239L170.876 61.24L170.188 60.8972L169.367 62.5505L169.364 62.5564C169.151 62.989 168.944 63.4064 168.741 63.8103L170.113 64.4988C170.318 64.0909 170.528 63.67 170.742 63.2341ZM122.052 63.2605C121.216 62.6535 120.44 61.9767 119.746 61.2546L118.639 62.3191C119.397 63.1078 120.242 63.8434 121.149 64.5027L122.052 63.2605ZM69.3613 66.491C69.8215 66.3029 70.2898 66.0895 70.8047 65.8425C71.1616 65.6723 71.5451 65.4451 71.9443 65.1755L71.0859 63.9031C70.7317 64.1423 70.4145 64.3266 70.1436 64.4558L70.1406 64.4578C69.636 64.6998 69.2 64.8999 68.7812 65.071L69.3613 66.491ZM127.072 65.6912C126.658 65.6151 126.358 65.5291 126.062 65.4216L126.063 65.4207C125.594 65.2489 125.129 65.0511 124.67 64.8298L124.003 66.2136C124.506 66.4559 125.018 66.6733 125.536 66.863C125.909 66.9984 126.291 67.1075 126.795 67.2L127.072 65.6912ZM63.1709 67.6238C64.4538 67.5584 65.4637 67.4638 66.3203 67.3298L66.2158 66.6521L66.084 65.8132C65.2989 65.936 64.3464 66.0267 63.0938 66.0906L63.1709 67.6238ZM132.05 66.0466C131.018 66.0135 130.178 65.9784 129.482 65.9373L129.393 67.4705C130.106 67.5126 130.961 67.5465 132.001 67.5798L132.05 66.0466ZM26.8076 68.8767L27.6777 68.3796C27.2494 67.6301 26.8086 66.8216 26.3447 65.9392L24.9854 66.6541C25.4562 67.5497 25.9069 68.3735 26.3457 69.1414L26.8076 68.8767ZM137.224 67.7039L137.252 66.1687C136.301 66.1513 135.437 66.1337 134.649 66.116L134.631 66.905L134.614 67.6501C135.404 67.6679 136.271 67.6874 137.223 67.7048L137.224 67.7039ZM56.8447 67.7585C58.0198 67.7516 59.069 67.7404 60.0117 67.7234L59.999 66.9558L59.998 66.9568L59.9844 66.1882C59.0501 66.2051 58.0078 66.2164 56.8369 66.2234L56.8418 67.0007L56.8447 67.7585ZM142.866 67.7937L142.888 66.2576L141.17 66.2351C140.719 66.2281 140.283 66.2205 139.86 66.2136L139.836 67.7488C140.259 67.7556 140.696 67.7632 141.146 67.7703L142.865 67.7947L142.866 67.7937ZM52.0947 67.7703C52.6439 67.7703 53.1733 67.7679 53.6836 67.7673L53.6826 66.2332C53.1729 66.2337 52.6437 66.2341 52.0947 66.2341H50.4746V67.7703H52.0947ZM41.1299 70.0779L41.1318 70.0759C40.7737 69.721 40.4545 69.3793 40.1885 69.0554L39.1299 67.7703H40.751V66.2341H35.876L38.209 69.0671L38.8008 68.5798L39.0977 68.3357L39.1299 68.3103V69.3054H39.2295L38.7383 69.7097L39.0029 70.031C39.3094 70.404 39.6632 70.7865 40.0488 71.1687L41.1299 70.0779ZM47.2334 67.7703V66.2341H43.9922V67.7703H47.2334ZM92.8652 67.7703V66.3523H92.7461V66.2341H91.3291V67.7703H92.8652ZM98.416 67.7703V66.2341H95.5811V67.7703H98.416ZM102.668 67.7703V66.2341H101.251V66.3523H101.133V67.7703H102.668ZM167.454 69.4812C167.896 68.7175 168.349 67.9003 168.82 67.0115L167.465 66.2917C167.001 67.1667 166.559 67.9682 166.128 68.7126L166.897 69.158L167.454 69.4812ZM149.767 66.3523L146.327 66.3054L146.306 67.8406L146.305 67.8416L149.745 67.8884L149.767 66.3523ZM153.198 71.8298C153.515 71.5282 153.828 71.2173 154.139 70.8972L154.602 70.4343L153.645 69.4783L154.884 69.4949L154.892 68.8728L155.528 69.5076L158.562 66.4734L153.206 66.3992L153.185 67.9353L154.905 67.9587L153.053 69.8113C152.75 70.1234 152.445 70.4248 152.138 70.7175L153.198 71.8298ZM41.1201 67.7703L41.1094 67.7576L41.0938 67.7703H41.1201ZM30.6621 72.9685C30.1327 72.2663 29.6196 71.5313 29.1045 70.7341L27.8154 71.5671C28.3496 72.3937 28.8838 73.1583 29.4365 73.8914L30.6621 72.9685ZM164.339 74.1853C164.902 73.4517 165.44 72.6947 165.974 71.8845L164.694 71.0408C164.181 71.8209 163.663 72.5474 163.123 73.2507L164.339 74.1853ZM45.4531 73.5701L45.4541 73.5691C44.68 73.0397 43.9224 72.4794 43.2178 71.9158L43.2168 71.9167L42.7363 72.5164L42.2568 73.116C42.9925 73.7045 43.7813 74.2874 44.5859 74.8376L45.4531 73.5701ZM148.97 75.2117C149.724 74.7113 150.453 74.1808 151.161 73.613L150.681 73.0144L150.366 72.6199L150.2 72.4138C149.528 72.9528 148.838 73.4582 148.121 73.9333L148.97 75.2117ZM50.6729 76.4958C50.1451 76.2559 49.6014 75.9942 49.0332 75.7078C48.6345 75.5084 48.2233 75.2885 47.8066 75.0505L47.0459 76.3835C47.4824 76.6328 47.9167 76.8662 48.3418 77.0789L49.2021 77.5027C49.4843 77.6385 49.7622 77.7693 50.0371 77.8943L50.6729 76.4958ZM32.79 77.8054L33.915 76.7605L33.3008 76.0984C32.9825 75.7556 32.6771 75.4173 32.3818 75.0798L31.2266 76.0896C31.3321 76.2102 31.437 76.3322 31.5449 76.4529L32.1758 77.1433L32.79 77.8054ZM143.777 78.0281C144.329 77.7843 144.888 77.5194 145.462 77.2322C145.867 77.0296 146.264 76.8218 146.654 76.6082L145.916 75.2625C145.544 75.4664 145.164 75.6649 144.775 75.8591C144.219 76.1373 143.682 76.391 143.155 76.6238L143.467 77.3259L143.777 78.0281ZM161.595 77.408C161.923 77.0559 162.236 76.7074 162.541 76.3621L161.969 75.8542L161.968 75.8552L161.393 75.3464C161.097 75.6809 160.79 76.0177 160.471 76.3611L159.916 76.9539L161.037 78.0037L161.595 77.408ZM57.6182 78.5642V78.5613C56.3416 78.3759 55.1927 78.1263 54.0684 77.7888V77.7908L53.627 79.2625C54.8304 79.6236 56.0539 79.8887 57.3975 80.0837L57.6182 78.5642ZM136.507 80.0964C137.829 79.9113 139.038 79.6632 140.216 79.3289L140.005 78.5906L140.006 78.5896L139.796 77.8513L139.794 77.8484C138.692 78.1611 137.553 78.3965 136.293 78.573L136.294 78.5759L136.507 80.0964ZM36.168 81.3464V79.1863L35.1436 78.0828L34.0186 79.1277L34.0176 79.1287L34.6328 79.7898V81.3464H36.168ZM159.365 81.3464V79.7898L159.922 79.1941L158.802 78.1443L158.244 78.74L157.829 79.1824V81.3464H159.365ZM64.4355 79.0525L63.0566 78.9958L61.8975 78.947C61.6735 78.9361 61.4539 78.9225 61.2383 78.9099V78.9119L61.1484 80.4451C61.4428 80.4623 61.7442 80.4778 62.0527 80.4919L64.373 80.5876L64.4355 79.0525ZM130.995 80.531C131.631 80.508 132.239 80.4802 132.82 80.446L132.73 78.9128L132.729 78.9109C132.517 78.9233 132.302 78.9362 132.082 78.947L130.941 78.9958L129.562 79.0535L129.624 80.5876L130.995 80.531ZM68.5166 80.6228L68.5938 80.6208L68.5752 79.2224L67.1953 79.1658L67.1914 79.241L67.0391 79.2429L67.0576 80.6423L67.1338 80.6414L67.1318 80.7009L68.5117 80.7576L68.5166 80.6228ZM126.865 80.7009L126.861 80.6179L126.939 80.6189L126.958 79.2439L126.805 79.2419L126.802 79.1667L125.423 79.2224L125.403 80.5984L125.479 80.5994L125.485 80.7576L126.865 80.7009ZM126.901 83.3689L125.365 83.3474L125.328 86.0984L126.864 86.1179L126.901 83.3689ZM68.6689 86.2156L68.6309 83.4187L67.8633 83.4285L67.0957 83.4392L67.1338 86.2361L68.6689 86.2156ZM36.168 87.5759V84.4617H34.6328V87.5759H36.168ZM159.365 87.5759V84.4617H157.829V87.5759H159.365ZM46.041 88.6433C46.0505 87.8996 46.0598 87.3983 46.0713 87.1765L46.085 87.0466C46.1018 87.0466 46.359 87.1311 46.7666 87.2664L46.7676 87.2654L47.251 85.8074C47.0454 85.7392 46.8732 85.6824 46.748 85.6423C46.6865 85.6226 46.6294 85.6045 46.583 85.5906C46.5613 85.5841 46.5308 85.5756 46.499 85.5671C46.4844 85.5632 46.4552 85.5554 46.4199 85.5476C46.4025 85.5438 46.371 85.5373 46.332 85.531C46.3088 85.5273 46.2108 85.5105 46.085 85.5105C45.5167 85.5105 45.1442 85.8104 44.9814 85.9783C44.8201 86.1448 44.7346 86.3084 44.7002 86.3796C44.6275 86.5301 44.5973 86.6591 44.5889 86.6941C44.5662 86.7884 44.5565 86.867 44.5537 86.8904C44.546 86.9547 44.5424 87.0176 44.54 87.0583C44.5347 87.1498 44.5302 87.2697 44.5264 87.405C44.5186 87.6808 44.5114 88.0804 44.5049 88.5857L45.9199 88.6042C45.9569 88.6163 45.9974 88.629 46.041 88.6433ZM147.911 88.6375C147.914 88.6366 147.917 88.6363 147.92 88.6355L148.623 88.615L149.391 88.5925C149.376 88.0874 149.36 87.6803 149.343 87.3933C149.335 87.2548 149.324 87.1166 149.311 87.0017C149.305 86.9534 149.292 86.8553 149.266 86.7478C149.256 86.7063 149.223 86.5724 149.148 86.4187C149.113 86.3456 149.027 86.1811 148.864 86.0144C148.7 85.846 148.327 85.5486 147.761 85.5486H147.609L147.46 85.5789C147.274 85.616 146.842 85.7505 146.413 85.8865L146.877 87.3503V87.3523C147.358 87.1999 147.68 87.1009 147.761 87.0847C147.794 87.0847 147.825 87.6401 147.854 88.655C147.874 88.649 147.893 88.6429 147.911 88.6375ZM50.627 86.9119C50.1259 86.7639 49.6693 86.6226 49.292 86.4968C49.0622 86.4182 48.837 86.3416 48.6211 86.2683L48.1279 87.7224L48.127 87.7244C48.3454 87.7986 48.5739 87.8742 48.8066 87.9539C49.2062 88.087 49.6806 88.2343 50.1924 88.3855L50.627 86.9119ZM144.246 88.2185C144.546 88.1165 144.84 88.0195 145.121 87.9255V87.9236L144.635 86.4666C144.35 86.5615 144.054 86.6613 143.751 86.7644C143.353 86.8912 142.92 87.0246 142.477 87.157L142.915 88.6277C143.378 88.4897 143.83 88.3514 144.246 88.2185ZM46.8398 87.1931C46.8408 87.1773 46.8415 87.168 46.8418 87.1638C46.8414 87.1668 46.8403 87.1733 46.8389 87.1824C46.8376 87.1905 46.8339 87.2092 46.8281 87.2332C46.8264 87.2402 46.8222 87.2577 46.8145 87.282C46.8215 87.2843 46.8288 87.2864 46.8359 87.2888C46.8375 87.2498 46.8384 87.2177 46.8398 87.1931ZM47.5967 87.4919C47.6003 87.3636 47.6039 87.2814 47.6064 87.238C47.608 87.212 47.6071 87.2243 47.6035 87.2546C47.6026 87.2624 47.5956 87.3281 47.5752 87.4128C47.5713 87.429 47.5607 87.4702 47.542 87.5271C47.5597 87.5331 47.5777 87.5386 47.5957 87.5447C47.5962 87.5265 47.5962 87.5089 47.5967 87.4919ZM146.299 87.5369C146.289 87.5043 146.283 87.4816 146.281 87.4724C146.269 87.4204 146.262 87.3816 146.261 87.3699C146.263 87.3876 146.267 87.4417 146.273 87.5457C146.282 87.5429 146.29 87.5396 146.299 87.5369ZM55.1279 89.6638L55.2939 88.9148L55.459 88.1648L54.7314 88.0037C54.3275 87.9096 53.8645 87.795 53.374 87.6687L52.9912 89.157C53.4975 89.2873 53.9783 89.4055 54.4004 89.5037L55.127 89.6648L55.1279 89.6638ZM138.879 89.6931C139.233 89.6245 139.702 89.5127 140.232 89.3767L139.853 87.8894C139.333 88.0225 138.898 88.1241 138.587 88.1843L138.044 88.2878L138.33 89.7966L138.879 89.6931ZM58.8467 91.28V88.9128L57.6426 88.6462L56.9141 88.4861L56.583 89.9851L56.582 89.9861L57.3105 90.1462V91.28H58.8467ZM136.687 91.2419V90.1082L137.233 90.0046L136.948 88.4958L135.15 88.8367V91.2419H136.687ZM126.807 90.2449L126.808 90.2429L126.826 88.8679L126.058 88.8582L125.29 88.8474L125.271 90.2214C125.263 90.7938 125.253 91.342 125.244 91.8669L126.781 91.8923L126.807 90.2449ZM67.9824 92.2166L68.751 92.2048C68.7428 91.6406 68.7343 91.0435 68.7256 90.4109L68.7061 89.0134L67.9395 89.0222L67.1709 89.033L67.1904 90.4324C67.1992 91.0651 67.2076 91.6626 67.2158 92.2273L67.9824 92.2166ZM36.168 93.8054V90.6902H34.6328V93.8054H36.168ZM159.365 93.8054V90.6902H157.829V93.8054H159.365ZM45.998 94.8494C46.0026 93.6991 46.007 92.6519 46.0127 91.7244L45.2451 91.7195L45.2441 91.7205L44.4775 91.7156C44.4718 92.6441 44.4664 93.6921 44.4619 94.8425L45.998 94.8494ZM147.955 94.8708L149.49 94.8562C149.479 93.706 149.467 92.6579 149.453 91.7292L148.685 91.741L147.917 91.7517L147.916 91.7527C147.93 92.6783 147.942 93.7236 147.953 94.8718L147.955 94.8708ZM136.687 93.5105H135.15V94.6443C135.15 95.2016 135.141 95.8032 135.123 96.4177L136.656 96.4626C136.674 95.8356 136.687 95.2189 136.687 94.6443V93.5105ZM57.3105 94.6824C57.3106 94.9895 57.3137 95.3095 57.3193 95.6375L57.3398 96.491L58.875 96.4451C58.857 95.8321 58.8467 95.2338 58.8467 94.6824V93.5476H57.3105V94.6824ZM126.592 98.489C126.644 97.5151 126.683 96.4229 126.715 95.1775L125.18 95.1384H125.177C125.145 96.3762 125.106 97.4527 125.055 98.407H125.059L126.592 98.489ZM68.9248 99.363H68.9268C68.8786 98.4331 68.844 97.2804 68.8135 95.7888H68.8115L67.2754 95.8201C67.306 97.3164 67.3412 98.4888 67.3906 99.4431L68.9248 99.363ZM36.168 100.034V96.9197H34.6328V100.034H36.168ZM159.365 100.034V96.9197H157.829V100.034H159.365ZM45.9902 97.9753L45.9883 97.9744L44.4521 97.9705C44.4495 98.9637 44.4473 100.008 44.4453 101.095L45.9805 101.098L45.9814 101.099C45.9835 100.012 45.9876 98.9682 45.9902 97.9753ZM148 101.113L149.536 101.105C149.531 100.018 149.524 98.9746 149.517 97.9822L147.981 97.9929L147.98 97.9939C147.988 98.9854 147.993 100.028 147.998 101.114L148 101.113ZM135.994 103.521C136.097 102.983 136.19 102.443 136.271 101.901C136.34 101.446 136.405 100.818 136.463 100.094L135.7 100.032L135.699 100.033L134.935 99.9705C134.877 100.68 134.815 101.266 134.753 101.668L134.751 101.675C134.673 102.195 134.586 102.714 134.486 103.231L135.994 103.521ZM58.7578 103.393L59.5117 103.249C59.4121 102.727 59.3235 102.203 59.2461 101.677L59.2451 101.668C59.1836 101.268 59.1205 100.684 59.0635 99.9792L57.5342 100.103C57.5924 100.823 57.6568 101.448 57.7266 101.901C57.8072 102.449 57.9022 102.994 58.0059 103.537L58.7578 103.393ZM125.496 105.344C125.858 104.261 126.11 103.174 126.29 101.883L125.529 101.777L124.77 101.671H124.768C124.6 102.878 124.37 103.873 124.04 104.857L125.496 105.344ZM70.4707 106.199C70.2683 105.683 70.0772 105.157 69.8975 104.623C69.6808 103.973 69.5121 103.449 69.376 102.911H69.374L68.6289 103.099L67.8848 103.288C68.0366 103.888 68.2248 104.461 68.4404 105.108L68.4414 105.112C68.629 105.67 68.8293 106.22 69.041 106.76L70.4707 106.199ZM36.168 106.263V103.148H34.6328V106.263H36.168ZM159.365 106.263V103.148H157.829V106.263H159.365ZM45.9766 104.221L44.4404 104.219C44.4392 105.234 44.4382 106.277 44.4375 107.344L45.9736 107.344L45.9746 107.345C45.9753 106.279 45.9753 105.236 45.9766 104.221ZM148.021 107.35L148.789 107.349L149.557 107.347C149.555 106.282 149.552 105.239 149.549 104.225L148.013 104.23L148.012 104.231C148.015 105.245 148.018 106.286 148.021 107.351L148.021 107.35ZM134.229 109.844C134.608 108.816 134.946 107.773 135.24 106.719L133.763 106.304C133.479 107.318 133.154 108.322 132.789 109.311L134.229 109.844ZM59.7871 109.921L61.2275 109.385C60.8577 108.389 60.5279 107.377 60.2412 106.352L58.7637 106.766C59.0618 107.832 59.4026 108.885 59.7871 109.921ZM122.385 111.998C122.557 111.702 122.727 111.393 122.9 111.067L123.433 110.034L123.436 110.027C123.697 109.497 123.94 109.002 124.163 108.535L122.776 107.874H122.774C122.556 108.331 122.319 108.819 122.059 109.347C121.702 110.06 121.378 110.67 121.056 111.224L122.385 111.998ZM72.291 112.992L73.5645 112.134C72.9459 111.215 72.3766 110.254 71.8555 109.251L70.4922 109.96C71.0395 111.013 71.6394 112.024 72.291 112.992ZM34.6328 112.492H36.168V109.378H34.6328V112.492ZM159.365 109.378H157.829V112.492H159.365V109.378ZM45.9727 110.469L45.2041 110.468H44.4355V113.595H45.9717L45.9727 110.469ZM148.025 112.031V113.595H149.562V110.469L148.793 110.47H148.023L148.025 112.031ZM131.465 115.798C132.005 114.843 132.506 113.868 132.967 112.876L132.293 112.562L131.574 112.229C131.131 113.184 130.649 114.122 130.13 115.041L131.465 115.798ZM63.9287 115.163C63.4012 114.239 62.91 113.294 62.459 112.33L61.0693 112.98C61.538 113.983 62.0486 114.964 62.5967 115.924L63.9287 115.163ZM116.907 118.412C117.302 118.042 117.703 117.651 118.117 117.237C118.69 116.664 119.192 116.149 119.64 115.663L118.511 114.622C118.082 115.087 117.596 115.586 117.031 116.151C116.627 116.555 116.235 116.933 115.854 117.29L115.856 117.291L116.907 118.412ZM77.9336 117.2C77.106 116.445 76.3261 115.645 75.5967 114.799L74.4336 115.801C75.2032 116.693 76.0255 117.538 76.8984 118.335L77.9336 117.2ZM36.168 118.721V115.607H34.6328V118.721H36.168ZM159.365 118.721V115.607H157.829V118.721H159.365ZM149.562 119.85V116.722H148.025V119.85H149.562ZM45.9717 119.85V116.722H44.4355V119.85H45.9717ZM127.785 121.233C128.471 120.377 129.121 119.495 129.734 118.59L128.464 117.728C127.874 118.6 127.247 119.448 126.587 120.272L127.785 121.233ZM67.5332 120.424C66.8624 119.599 66.2247 118.746 65.623 117.868L64.3584 118.734C64.9838 119.647 65.6452 120.534 66.3428 121.391L67.5332 120.424ZM82.6162 122.445L83.3672 121.106L83.3682 121.104C82.3802 120.55 81.4369 119.951 80.5391 119.307L80.0908 119.932L79.6436 120.556C80.5885 121.234 81.5798 121.864 82.6162 122.445ZM111.357 122.522C112.39 121.957 113.343 121.342 114.287 120.633L113.825 120.019L113.364 119.405L113.362 119.404C112.478 120.069 111.586 120.645 110.618 121.176L110.758 121.428L111.357 122.522ZM36.168 124.95V121.836H34.6328V124.95H36.168ZM159.365 124.95V121.836H157.829V124.95H159.365ZM106.69 124.618L106.692 124.617C107.239 124.409 107.759 124.202 108.258 123.994L107.666 122.577L107.665 122.576C107.184 122.777 106.679 122.978 106.146 123.181L105.323 123.494L105.434 123.783L105.868 124.929L106.69 124.618ZM88.7295 123.522L87.9268 123.219C87.399 123.02 86.8812 122.81 86.373 122.591L86.0674 123.296L85.7627 124C86.2937 124.229 86.8344 124.448 87.3848 124.656L87.3857 124.657L88.1895 124.959L88.7295 123.522ZM123.373 125.887C123.792 125.526 124.167 125.188 124.478 124.883C124.87 124.5 125.253 124.108 125.629 123.711L124.513 122.657C124.152 123.039 123.782 123.415 123.404 123.783L123.4 123.788C123.122 124.062 122.774 124.377 122.372 124.723L123.373 125.887ZM71.9521 125.01C71.1533 124.311 70.3838 123.576 69.6465 122.81L68.54 123.876C69.3073 124.673 70.1084 125.436 70.9404 126.165L71.9521 125.01ZM149.562 126.106V122.978H148.025V126.106H149.562ZM45.9717 126.106V122.978H44.4355V126.106H45.9717ZM104.394 124.444L103.801 124.438L103.68 124.117L102.857 124.428L102.843 125.894L104.379 125.908L104.394 124.444ZM91.1533 125.894L91.1396 124.428L90.3369 124.127L90.2197 124.438L89.6045 124.444L89.6182 125.908L91.1533 125.894ZM118.633 129.528C119.423 128.976 120.25 128.37 121.046 127.762L120.114 126.543C119.336 127.137 118.526 127.729 117.754 128.268L118.633 129.528ZM76.7217 128.553C76.3934 128.342 76.0598 128.125 75.7324 127.909C75.2934 127.616 74.8611 127.313 74.4355 127.002L73.5293 128.238C73.9751 128.565 74.4264 128.884 74.8867 129.191C75.2183 129.41 75.5568 129.629 75.8896 129.844L76.7217 128.553ZM36.168 131.179V128.065H34.6328V131.179H36.168ZM159.365 131.179V128.065H157.829V131.179H159.365ZM89.6748 131.767L91.21 131.753L91.1816 128.824L90.415 128.83L89.6465 128.838L89.6748 131.767ZM104.351 128.838L102.814 128.824L102.786 131.753L104.322 131.767L104.351 128.838ZM149.562 132.362V129.234H148.025V132.362H149.562ZM45.9717 132.362V129.234H44.4355V132.362H45.9717ZM79.6338 132.092L80.751 131.038C80.3672 130.631 79.8926 130.414 79.5879 130.28L79.585 130.279C79.4682 130.228 79.1743 130.07 78.7051 129.791L77.9209 131.111C78.3831 131.386 78.7528 131.592 78.9688 131.686C79.2703 131.819 79.4825 131.933 79.6328 132.093L79.6338 132.092ZM114.232 132.226C114.352 132.012 114.532 131.913 114.802 131.838C115.098 131.741 115.56 131.502 116.13 131.164L115.781 130.574L115.348 129.844C114.781 130.18 114.448 130.337 114.329 130.377C113.884 130.509 113.279 130.78 112.89 131.477L114.231 132.225L114.232 132.226ZM79.9893 134.37V134.918H81.5254V134.37C81.5254 134.068 81.5238 133.793 81.5176 133.547L80.75 133.566L79.9824 133.585L79.9795 133.586C79.9852 133.813 79.9893 134.072 79.9893 134.37ZM114.014 133.668C114.014 133.652 114.015 133.636 114.016 133.621L114.015 133.62L112.479 133.581C112.474 133.809 112.472 134.059 112.472 134.332V134.889H114.008V134.332L114.014 133.668ZM36.168 137.409V134.294H34.6328V137.409H36.168ZM159.365 137.409V134.294H157.829V137.409H159.365ZM91.2617 137.617L91.2529 136.146L91.2383 134.682L89.7031 134.696L89.7178 136.161L89.7266 137.626L91.2617 137.617ZM104.28 136.156L104.294 134.696L102.758 134.682L102.744 136.146L102.734 137.617L104.271 137.626L104.28 136.156ZM149.562 138.841V135.489H148.025V137.053L146.287 136.789C146.084 136.765 145.595 136.745 144.874 136.722L144.851 137.487L144.827 138.255C145.536 138.277 145.948 138.299 146.093 138.313L146.49 138.373L146.691 137.053H147.581L147.476 137.746L147.36 138.506L149.562 138.841ZM46.6377 138.506L46.416 137.053H47.3057L47.5068 138.373L47.9023 138.313C48.0448 138.299 48.4571 138.277 49.1699 138.255L49.1455 137.488L49.1465 137.487L49.1221 136.722C48.4017 136.745 47.9132 136.765 47.71 136.789L45.9717 137.053V135.489H44.4355V138.841L46.6377 138.506ZM114.008 136.005H112.472V138.097H115.916V136.562H114.008V136.005ZM79.9893 136.562H78.0811V138.097H81.5254V136.013H79.9893V136.562ZM123.552 138.097V136.562H119.734V138.097H123.552ZM129.278 138.097V136.562H127.369V138.097H129.278ZM130.694 137.331L130.696 136.789L130.695 136.565L129.278 136.562V138.097C129.753 138.097 130.225 138.098 130.693 138.098L130.694 137.331ZM74.2637 138.097V136.562H70.4453V138.097H74.2637ZM66.6279 138.097V136.562H64.7197V138.097H66.6279ZM64.7197 138.097V136.562L63.3008 136.565L63.3037 138.098C63.7725 138.098 64.2451 138.097 64.7197 138.097ZM60.4717 138.107L60.4678 137.341L60.4688 137.34L60.4648 136.573C59.4892 136.577 58.5402 136.584 57.6289 136.591L57.6406 138.125C58.5502 138.118 59.4978 138.112 60.4717 138.107ZM136.367 136.591C135.456 136.584 134.507 136.577 133.531 136.573L133.525 138.107C134.499 138.112 135.447 138.118 136.356 138.125L136.367 136.591ZM54.8115 138.151L54.7939 136.617C53.7623 136.629 52.8096 136.642 51.958 136.657L51.9844 138.191C52.8326 138.177 53.7823 138.163 54.8115 138.151ZM142.038 136.657C141.186 136.642 140.234 136.629 139.202 136.617L139.186 138.151C140.215 138.163 141.164 138.177 142.013 138.191L142.038 136.657ZM34.6328 142.081L33.9609 142.733L35.0322 143.834L36.168 142.729V140.523H34.6328V142.081ZM159.365 140.523H157.829V142.73L158.919 143.788L159.988 142.685L159.365 142.081V140.523ZM104.251 140.564L102.715 140.554L102.696 143.494L104.232 143.503L104.251 140.564ZM91.2998 143.494L91.2812 140.555L90.5137 140.559L89.7461 140.564L89.7646 143.503L91.2998 143.494ZM162.86 145.527C162.536 145.181 162.204 144.838 161.859 144.5L161.235 143.895L160.167 144.997L160.79 145.602C161.117 145.924 161.434 146.248 161.741 146.576L162.86 145.527ZM32.0439 146.806C32.3663 146.453 32.6925 146.113 33.0195 145.79L33.6904 145.137L33.1543 144.588L32.7354 144.156L32.6182 144.037L31.9482 144.688C31.5979 145.034 31.2505 145.396 30.9082 145.772L32.0439 146.806ZM62.0859 148.786L62.5654 148.186L63.0439 147.586L61.5107 146.362L60.9668 146.365L59.54 146.375L59.5498 147.911L60.9775 147.901L62.085 148.787L62.0859 148.786ZM79.7197 149.437H80.6797V149.12L79.1582 147.901H80.9502L81.21 147.577L80.6797 147.152V146.365H74.7832L79.2891 149.974L79.7197 149.437ZM86.7646 147.901V146.365H83.7227V147.901H86.7646ZM104.214 146.442H104.189V146.365H102.678L102.668 147.901H104.204L104.214 146.442ZM110.275 147.901V146.365H107.232V147.901H110.275ZM119.214 146.365H113.317V147.153L112.788 147.577L113.048 147.901H114.839L113.317 149.12V149.437H114.278L114.708 149.974L119.214 146.365ZM131.653 148.965L132.982 147.901H134.343V146.365H132.443L130.694 147.765L131.653 148.965ZM140.281 147.924L140.299 147.157L140.317 146.388C139.688 146.374 139.05 146.365 138.425 146.365H137.064V147.901H138.425C139.036 147.901 139.662 147.912 140.28 147.927L140.281 147.924ZM91.3291 147.901L91.3193 146.365H89.8076V146.442H89.7832L89.793 147.901H91.3291ZM55.2695 147.939L56.6973 147.93L56.6865 146.393L55.2598 146.403C54.7663 146.405 54.2892 146.411 53.8281 146.421L53.8594 147.956C54.3124 147.947 54.782 147.941 55.2695 147.939ZM48.251 148.407C49.0998 148.261 50.0236 148.153 51.0459 148.079L50.9365 146.547C49.8753 146.624 48.8987 146.735 47.9893 146.892L48.251 148.407ZM147.411 148.733L147.645 148.002L147.877 147.269C147.312 147.089 146.735 146.938 146.149 146.814L146.145 146.813C145.66 146.713 144.925 146.633 144.11 146.569L143.99 148.1L143.989 148.102C144.801 148.166 145.452 148.238 145.833 148.317C146.368 148.43 146.894 148.572 147.41 148.736L147.411 148.733ZM42.9951 150.331C43.7912 149.83 44.6177 149.426 45.5244 149.103L45.0088 147.655C43.9956 148.016 43.0673 148.469 42.1777 149.028L42.9951 150.329V150.331ZM166.377 150.051C165.871 149.25 165.321 148.469 164.727 147.706L164.121 148.177L163.516 148.648C164.08 149.373 164.602 150.113 165.08 150.87L166.377 150.051ZM28.5879 151.371C29.0843 150.578 29.6328 149.782 30.2168 149.01L28.9932 148.085C28.3823 148.892 27.8083 149.725 27.2871 150.557L28.5879 151.371ZM153.099 151.86L154.08 150.678C153.17 149.922 152.188 149.251 151.147 148.677L150.405 150.022C151.36 150.548 152.26 151.167 153.097 151.862L153.099 151.86ZM66.5215 152.327L67.4795 151.127L65.2617 149.356L64.6758 150.09L64.3037 150.556L66.5215 152.327ZM128.999 151.092L128.549 150.527L128.039 149.891L125.384 152.017L126.344 153.217L128.999 151.092ZM112.525 151.722L111.703 150.695L111.564 150.523L109.382 152.272L110.342 153.47L112.525 151.722ZM83.6553 153.47L84.6143 152.272L82.4316 150.524L81.9521 151.123L81.4727 151.722L83.6553 153.47ZM38.8887 153.889C39.1568 153.591 39.4388 153.296 39.7354 153.004C40.0823 152.66 40.4228 152.339 40.7598 152.038L40.249 151.464L40.248 151.465L39.7373 150.891C39.3774 151.213 39.0174 151.553 38.6543 151.913C38.3383 152.224 38.0356 152.54 37.7471 152.861L38.8887 153.889ZM168.689 155.267L168.918 155.183C168.585 154.284 168.206 153.407 167.781 152.551L166.406 153.231C166.807 154.039 167.164 154.867 167.479 155.716L168.689 155.267ZM70.9561 155.867L71.4355 155.267L71.9141 154.667L69.6963 152.896L68.7383 154.096L68.7373 154.097L70.9561 155.867ZM26.1719 156.423C26.3133 156.005 26.4719 155.577 26.6504 155.115L26.9092 154.494C27.0022 154.283 27.1022 154.067 27.208 153.848L25.8262 153.18C25.7005 153.44 25.5809 153.697 25.4707 153.95L25.2207 154.553C25.0361 155.031 24.871 155.484 24.7197 155.93L26.1719 156.423ZM157.236 156.863L158.581 156.122C158.008 155.081 157.338 154.098 156.585 153.188L155.401 154.168L155.399 154.17C156.092 155.007 156.709 155.908 157.235 156.864L157.236 156.863ZM88.5312 156.392L89.0107 155.792C88.6426 155.498 88.2683 155.198 87.8896 154.894L86.7969 154.02L85.8379 155.219L88.0527 156.992L88.5312 156.392ZM107.068 156.093L108.159 155.219L107.679 154.62L107.199 154.02L106.108 154.894C105.729 155.199 105.354 155.497 104.985 155.792L105.465 156.392L105.944 156.992C106.313 156.697 106.689 156.397 107.068 156.093ZM123.688 155.344L123.253 154.798L122.729 154.143L120.073 156.27L121.033 157.469L123.688 155.344ZM36.1885 157.95C36.5283 157.209 36.9265 156.501 37.3838 155.817L36.1064 154.963C35.6042 155.714 35.1682 156.494 34.7939 157.31L35.4912 157.631L36.1885 157.95ZM75.3994 159.421L76.3623 158.224C75.9935 157.928 75.6207 157.627 75.2441 157.325L75.2402 157.322L74.1318 156.437L73.6523 157.038L73.1738 157.637L74.2822 158.522C74.6583 158.824 75.03 159.125 75.3984 159.422L75.3994 159.421ZM93.5244 159.346C92.8398 158.817 92.0773 158.222 91.2607 157.578L90.3105 158.784C91.1301 159.43 91.8952 160.028 92.584 160.561L93.5244 159.346ZM103.688 158.784L103.211 158.181L102.735 157.578C101.919 158.222 101.156 158.816 100.472 159.345L100.474 159.346L101.413 160.561C102.102 160.028 102.868 159.43 103.688 158.784ZM170.34 160.837C170.272 160.257 170.193 159.769 170.1 159.316L169.985 158.787C169.92 158.496 169.848 158.207 169.773 157.92L168.288 158.302C168.401 158.738 168.503 159.18 168.596 159.627L168.713 160.271C168.749 160.5 168.784 160.745 168.815 161.014L170.34 160.837ZM115.722 161.721L118.378 159.595L117.999 159.121L117.418 158.396L114.763 160.522L115.722 161.721ZM25.1357 161.79C25.2263 160.702 25.3409 159.816 25.4854 159.036L23.9756 158.758C23.8199 159.599 23.6982 160.537 23.6045 161.662L25.1357 161.79ZM159.104 162.827L160.635 162.712C160.587 162.072 160.53 161.517 160.457 161.141L160.451 161.11C160.325 160.526 160.171 159.95 159.99 159.386L158.527 159.856L158.524 159.857C158.69 160.373 158.834 160.898 158.949 161.432C159.003 161.713 159.054 162.19 159.102 162.828L159.104 162.827ZM34.8955 162.828C34.943 162.189 34.994 161.71 35.0479 161.432C35.1353 161.027 35.2344 160.633 35.3447 160.247L34.6064 160.034L34.6055 160.035L33.8682 159.823C33.748 160.243 33.6413 160.672 33.5469 161.109L33.543 161.125L33.54 161.141C33.4675 161.516 33.4109 162.074 33.3633 162.713L34.1289 162.77L34.8955 162.828ZM79.8564 163.023L80.8242 161.831C80.1124 161.253 79.367 160.648 78.5947 160.024L77.6289 161.219L77.6279 161.219C78.3995 161.843 79.1444 162.447 79.8555 163.024L79.8564 163.023ZM97.165 163.414C97.3189 163.397 97.4332 163.362 97.4814 163.346C97.5666 163.319 97.6351 163.29 97.6777 163.27C97.7636 163.231 97.8386 163.19 97.8887 163.161C97.9934 163.1 98.1079 163.025 98.2188 162.95C98.4462 162.796 98.745 162.581 99.0967 162.321L98.1846 161.086L98.1826 161.085C97.4919 161.595 97.069 161.885 96.999 161.886C96.9301 161.886 96.5059 161.596 95.8135 161.085L95.8125 161.086L95.7148 161.219L94.9004 162.321C95.252 162.581 95.5509 162.796 95.7783 162.95C95.8892 163.025 96.0036 163.1 96.1084 163.161C96.1584 163.19 96.2334 163.231 96.3193 163.27C96.3621 163.29 96.4311 163.319 96.5166 163.346C96.5811 163.367 96.7624 163.423 96.999 163.423L97.165 163.414ZM110.411 165.973L113.066 163.847L112.667 163.346L112.107 162.648L109.452 164.774L110.411 165.973ZM84.292 166.653L85.2705 165.469C84.609 164.922 83.8628 164.31 83.0488 163.644L82.0771 164.833L82.0762 164.835C82.8886 165.499 83.632 166.109 84.291 166.654L84.292 166.653ZM170.643 166.984C170.621 165.782 170.593 164.77 170.558 163.904L169.023 163.967C169.058 164.817 169.086 165.817 169.107 167.011L170.643 166.984ZM24.8906 167.535C24.9107 166.462 24.9372 165.504 24.9707 164.64L24.2021 164.611L24.2031 164.61L23.4365 164.582C23.4025 165.458 23.3757 166.427 23.3555 167.508L24.8906 167.535ZM34.6729 168.444C34.6925 167.435 34.7186 166.489 34.75 165.635L33.2148 165.577C33.1831 166.441 33.1565 167.397 33.1367 168.414L34.6729 168.444ZM159.326 168.443L160.861 168.414C160.842 167.392 160.816 166.438 160.784 165.577L159.249 165.634L159.248 165.635C159.279 166.486 159.305 167.43 159.324 168.444L159.326 168.443ZM107.757 168.1L106.797 166.9L104.142 169.026L105.102 170.225L107.757 168.1ZM87.5488 169.446C87.5484 169.493 87.2223 169.799 86.6514 170.299L86.6533 170.3L87.665 171.455C87.9554 171.201 88.1985 170.983 88.374 170.816C88.4587 170.736 88.5479 170.648 88.624 170.564C88.659 170.526 88.7184 170.459 88.7783 170.376C88.8072 170.336 88.8609 170.259 88.9131 170.157C88.9428 170.099 89.0849 169.826 89.085 169.446C89.085 169.156 89.0026 168.94 88.9668 168.853C88.9232 168.748 88.8765 168.669 88.8486 168.624C88.7929 168.534 88.7385 168.467 88.7129 168.436C88.6569 168.369 88.6016 168.311 88.5674 168.277C88.4921 168.202 88.3993 168.116 88.3037 168.03C88.1069 167.853 87.8277 167.611 87.4834 167.318L86.4883 168.488C87.1707 169.069 87.5488 169.408 87.5488 169.446ZM169.93 173.14L170.696 173.138C170.693 172.02 170.687 170.997 170.68 170.06L169.913 170.065L169.145 170.072C169.152 171.006 169.158 172.026 169.162 173.143L169.93 173.14ZM24.8525 170.446L24.084 170.44L24.085 170.439L23.3174 170.433C23.3094 171.344 23.3055 172.319 23.3018 173.367L24.835 173.371C24.8387 172.326 24.8446 171.353 24.8525 170.446ZM102.446 172.352L101.486 171.153L98.8311 173.279L99.3105 173.879L99.791 174.477L102.446 172.352ZM34.6377 171.255L34.6367 171.254L33.8691 171.249L33.8682 171.25L33.1006 171.244C33.0977 171.709 33.0967 172.182 33.0967 172.659V173.816H34.6328V172.659L34.6377 171.255ZM159.365 172.659V173.816H160.901V172.659C160.901 172.18 160.899 171.708 160.896 171.244L159.36 171.254L159.358 171.255L159.365 172.659ZM85.7461 173.088L84.7617 171.909L84.7598 171.908C84.1849 172.388 83.5415 172.922 82.8467 173.491L83.8203 174.679C84.5185 174.108 85.167 173.572 85.7461 173.088ZM80.9092 177.035L80.9111 177.033C81.2404 176.77 81.5658 176.509 81.8848 176.252L80.9209 175.056L80.9189 175.055C80.6017 175.311 80.2796 175.572 79.9521 175.834L78.9971 176.595L79.9551 177.796L80.9092 177.035ZM94.4795 178.73L97.1348 176.604L96.1758 175.405L93.5205 177.531L94.4795 178.73ZM160.901 178.447V176.132H159.365V178.447H160.901ZM34.6328 178.447V176.132H33.0967V178.447H34.6328ZM170.701 176.217H169.936L169.168 176.218V179.052H170.704V177.761C170.704 177.23 170.702 176.716 170.701 176.217ZM23.293 177.761V179.052H24.8291V176.298H24.0605L23.2959 176.297C23.2955 176.772 23.293 177.26 23.293 177.761ZM78.0459 179.317L77.0879 178.116L75.1797 179.638L76.1367 180.839L78.0459 179.317ZM91.9326 183.455V182.738L92.7852 182.055L92.6768 181.92H90.4971L91.9326 180.77V180.384H91.4473L90.8652 179.657L86.1221 183.455H91.9326ZM159.365 181.92H157.931V183.455H160.901V180.761H159.365V181.92ZM36.2041 183.455V181.92H34.6328V180.761H33.0967V183.455H36.2041ZM72.8535 183.455L74.2285 182.359L73.2715 181.159L72.3164 181.92H70.748V183.455H72.8535ZM24.8291 184.219V181.635H23.293V184.219H24.8291ZM170.704 184.219V181.635H169.168V184.219H170.704ZM155.061 183.455V181.92H152.191V183.455H155.061ZM149.322 183.455V181.92H146.452V183.455H149.322ZM143.583 183.455V181.92H140.713V183.455H143.583ZM137.844 183.455V181.92H134.975V183.455H137.844ZM132.104 183.455V181.92H129.235V183.455H132.104ZM126.366 183.455V181.92H124.932V183.455H126.366ZM124.932 183.455V181.92H123.496V183.455H124.932ZM120.627 183.455V181.92H117.758V183.455H120.627ZM114.888 183.455V181.92H112.019V183.455H114.888ZM109.149 183.455V181.92H106.279V183.455H109.149ZM103.41 183.455V181.92H100.541V183.455H103.41ZM97.6709 183.455V181.92H94.8018V183.455H97.6709ZM67.6113 183.455V181.92H64.4736V183.455H67.6113ZM61.3369 183.455V181.92H58.1992V183.455H61.3369ZM55.0625 183.455V181.92H53.4932V183.455H55.0625ZM53.4932 183.455V181.92H51.9219V183.455H53.4932ZM48.7783 183.455V181.92H45.6348V183.455H48.7783ZM42.4912 183.455V181.92H39.3477V183.455H42.4912ZM24.8291 189.385V186.802H23.293V189.385H24.8291ZM170.704 189.385V186.802H169.168V189.385H170.704ZM24.8291 193.259V191.968L24.8281 191.722H23.293V193.259H24.8291ZM30.9707 193.259V191.722H27.8994V193.259H30.9707ZM37.1133 193.259V191.722H34.042V193.259H37.1133ZM43.2549 193.259V191.722H40.1836V193.259H43.2549ZM49.3975 193.259V191.722H46.3262V193.259H49.3975ZM55.5391 193.259V191.722H52.4678V193.259H55.5391ZM61.6816 193.259V191.722H58.6104V193.259H61.6816ZM67.8232 193.259V191.722H64.752V193.259H67.8232ZM73.9658 193.259V191.722H70.8945V193.259H73.9658ZM80.1074 193.259V191.722H77.0371V193.259H80.1074ZM86.25 193.259V191.722H83.1787V193.259H86.25ZM92.3916 193.259V191.722H89.3213V193.259H92.3916ZM98.5342 193.259V191.722H95.4629V193.259H98.5342ZM104.677 193.259V191.722H101.605V193.259H104.677ZM110.818 193.259V191.722H107.747V193.259H110.818ZM116.961 193.259V191.722H113.89V193.259H116.961ZM123.103 193.259V191.722H120.031V193.259H123.103ZM129.245 193.259V191.722H126.174V193.259H129.245ZM135.387 193.259V191.722H132.316V193.259H135.387ZM141.529 193.259V191.722H138.458V193.259H141.529ZM147.671 193.259V191.722H144.601V193.259H147.671ZM153.813 193.259V191.722H150.742V193.259H153.813ZM159.955 193.259V191.722H156.885V193.259H159.955ZM166.098 193.259V191.722H163.026V193.259H166.098ZM170.704 193.259V191.722H169.169V191.968L169.168 193.259H170.704Z" fill="white"/>
<path d="M108.339 98.0333C109.215 98.0333 109.866 98.028 110.513 98.0284V97.2618L110.514 96.4942C110.493 96.4942 110.473 96.4933 110.452 96.4933L108.339 96.4972C107.801 96.4972 107.312 96.4987 106.868 96.5011L106.876 98.0362C107.316 98.0339 107.802 98.0333 108.339 98.0333ZM85.6602 98.0333V96.4972L84.1465 96.5001L84.1514 98.0352C84.6022 98.0337 85.1033 98.0333 85.6602 98.0333ZM87.126 97.2686L87.1289 96.5011C86.6859 96.4987 86.1978 96.4972 85.6602 96.4972V98.0333C86.1967 98.0333 86.6823 98.0339 87.1221 98.0362L87.126 97.2686ZM81.7129 98.7101C81.5834 98.0509 81.5264 97.5507 81.5264 97.253C81.5264 97.1826 81.5354 97.3029 81.4785 97.4737C81.4455 97.5728 81.3919 97.6858 81.3096 97.797C81.2866 97.828 81.2633 97.8572 81.2393 97.8839L81.1924 97.338L81.1934 97.337L81.1865 97.253L81.1289 96.5724H81.125C80.0859 96.6601 79.9902 96.849 79.9902 97.253C79.9902 97.6978 80.0696 98.3112 80.2061 99.0059L81.7129 98.7101ZM90.9668 98.67L91.667 98.3507L91.6689 98.3497C91.4562 97.8832 91.3291 97.437 91.3291 97.0636L91.3193 96.9767C91.263 96.763 90.9644 96.6433 90.0625 96.5763L90.0273 97.0636L89.9785 97.7081C89.8319 97.4693 89.7939 97.2282 89.7939 97.0636L89.8037 97.3184C89.8487 97.9112 90.0424 98.4905 90.2695 98.9884L90.9668 98.67ZM103.73 99.0128C103.991 98.4336 104.205 97.7509 104.205 97.0636C104.205 97.2283 104.166 97.4691 104.019 97.7081L103.991 97.3419L103.952 96.8097L103.935 96.5763C103.034 96.6433 102.736 96.7632 102.68 96.9767L102.669 97.0636C102.669 97.4506 102.541 97.9071 102.327 98.3809L102.33 98.3819L103.73 99.0128ZM113.255 101.226C113.391 100.798 113.507 100.379 113.593 99.9747C113.792 99.0339 113.967 98.346 114.016 97.8438L113.252 97.7696L113.251 97.7706L112.487 97.6964C112.469 97.8898 112.425 98.1155 112.358 98.4249L112.09 99.6554C112.016 100.004 111.917 100.374 111.794 100.759L113.255 101.226ZM95.1084 103.363L95.4736 102.195L95.5664 101.898C95.1465 101.766 94.7191 101.578 94.2773 101.335C93.9173 101.132 93.5573 100.85 93.2188 100.521L93.0771 100.666L92.6826 101.07L92.1475 101.621C92.5566 102.019 93.0218 102.39 93.5234 102.673L93.5303 102.677L93.5361 102.681C94.0514 102.965 94.5735 103.196 95.1084 103.363ZM98.7559 103.412C99.1568 103.299 99.5537 103.15 99.9482 102.97L100.343 102.779L100.346 102.777C100.882 102.502 101.376 102.12 101.806 101.709L101.274 101.155L101.275 101.154L100.744 100.6C100.391 100.938 100.015 101.221 99.6455 101.41C99.1941 101.64 98.7607 101.814 98.3389 101.933L98.3398 101.934L98.7559 103.412ZM83.7695 104.43C83.5339 104.064 83.3429 103.721 83.1973 103.408L83.1934 103.401C82.9931 102.977 82.7886 102.467 82.5928 101.908L81.1436 102.416C81.352 103.01 81.5762 103.572 81.8047 104.057C81.9855 104.445 82.2135 104.849 82.4795 105.262L83.7695 104.43ZM111.019 105.89C111.483 105.169 111.911 104.404 112.286 103.629L110.904 102.961C110.557 103.68 110.158 104.391 109.729 105.059L111.019 105.89ZM87.1514 108.231C86.5078 107.669 85.8822 107.053 85.3145 106.421L84.7432 106.935L84.1729 107.446C84.7827 108.125 85.4516 108.786 86.1416 109.388L87.1514 108.231ZM107.251 109.975C107.701 109.638 108.141 109.279 108.565 108.895C108.869 108.617 109.17 108.303 109.467 107.965L108.314 106.953C108.049 107.256 107.785 107.526 107.528 107.762C107.142 108.112 106.742 108.44 106.333 108.746L107.251 109.975ZM91.6445 110.936C91.1624 110.762 90.683 110.565 90.209 110.342C89.8887 110.19 89.5402 109.995 89.1709 109.76L88.3467 111.056C88.7597 111.318 89.1645 111.546 89.5527 111.73C90.0708 111.973 90.5957 112.189 91.124 112.379L91.6445 110.936ZM101.16 112.897C102.252 112.619 103.321 112.232 104.351 111.737L104.02 111.046L104.019 111.047L103.687 110.355C102.749 110.805 101.776 111.157 100.783 111.409L101.16 112.897ZM94.4131 113.218C95.5429 113.391 96.6774 113.45 97.8027 113.397L97.7676 112.631L97.7666 112.632L97.7305 111.864C96.7073 111.913 95.6745 111.859 94.6455 111.701L94.4619 112.898L94.4131 113.218Z" fill="white"/>
</g>
<defs>
<clipPath id="clip0_1978_2130">
<rect width="192" height="193" fill="white"/>
</clipPath>
</defs>
</svg>
