<svg width="24" height="24" viewBox="0 0 24 24" fill="none" xmlns="http://www.w3.org/2000/svg">
<path d="M3 16.5938V7.40625C3 6.74314 3.26152 6.15788 3.74883 5.69727C4.23527 5.23759 4.842 5.00004 5.51982 5V5.875C5.0744 5.87504 4.6927 6.02463 4.37549 6.32446C4.05825 6.62433 3.9 6.98517 3.9 7.40625V16.5938C3.9 17.0148 4.05825 17.3757 4.37549 17.6755C4.6927 17.9754 5.0744 18.125 5.51982 18.125H18.4802C18.87 18.125 19.2107 18.0102 19.5023 17.7806L19.6245 17.6755C19.9417 17.3757 20.1 17.0148 20.1 16.5938V8.9375C20.1 8.56888 19.9784 8.24679 19.7353 7.97107L19.6245 7.85571C19.3468 7.59323 19.0196 7.44581 18.6437 7.41309L18.4802 7.40625V6.53125C19.158 6.53129 19.7647 6.76884 20.2512 7.22852C20.7385 7.68913 21 8.27439 21 8.9375V16.5938C21 17.2569 20.7385 17.8421 20.2512 18.3027C19.7647 18.7624 19.158 19 18.4802 19H5.51982C4.842 19 4.23527 18.7624 3.74883 18.3027C3.26152 17.8421 3 17.2569 3 16.5938ZM18.4802 6.53125V7.40625H12.7304V6.53125H18.4802ZM9.64893 5C10.3518 5 11.0276 5.26621 11.5315 5.74255L12.1037 6.28345C12.2716 6.44211 12.4962 6.53115 12.7304 6.53125V7.40625C12.3205 7.40616 11.9247 7.27015 11.6071 7.02344L11.4762 6.91064L10.904 6.37061C10.568 6.05302 10.1175 5.875 9.64893 5.875V5ZM9.64893 5V5.875H5.51982V5H9.64893Z" fill="white"/>
</svg>
