<svg width="16" height="16" viewBox="0 0 16 16" fill="none" xmlns="http://www.w3.org/2000/svg">
<path fill="none" stroke="currentColor" stroke-width="1" d="M2 2.5H5.67188C6.06959 2.50008 6.45119 2.65822 6.73242 2.93945L7.06055 3.26758C7.52932 3.73635 8.16519 3.99992 8.82812 4H14C14.2788 4 14.5053 4.09322 14.7061 4.29395C14.9068 4.49467 15 4.72116 15 5V12.5C15 12.7788 14.9068 13.0053 14.7061 13.2061C14.5053 13.4068 14.2788 13.5 14 13.5H2C1.72116 13.5 1.49467 13.4068 1.29395 13.2061C1.09322 13.0053 1 12.7788 1 12.5V3.5C1 3.22116 1.09322 2.99468 1.29395 2.79395C1.49468 2.59322 1.72116 2.5 2 2.5Z" />
</svg>
