<svg width="24" height="24" viewBox="0 0 24 24" fill="none" xmlns="http://www.w3.org/2000/svg">
<path d="M10.1836 24C9.6313 24 9.18358 23.5523 9.18358 23V17.7657C9.18358 17.0033 8.3647 16.5213 7.69817 16.8914L2.88328 19.5646C2.41234 19.8261 1.8189 19.6676 1.54111 19.206L0.143507 16.8841C-0.147661 16.4004 0.0191093 15.7717 0.511756 15.4959L5.19082 12.8762C5.87419 12.4936 5.87243 11.5095 5.18771 11.1294L0.516763 8.53604C0.0219136 8.26129 -0.146484 7.63098 0.145406 7.14604L1.54111 4.82729C1.8189 4.36578 2.41234 4.20724 2.88328 4.46871L7.69818 7.14196C8.3647 7.51202 9.18358 7.03004 9.18358 6.26767V1C9.18358 0.447716 9.6313 0 10.1836 0H13.0391C13.5914 0 14.0391 0.447715 14.0391 1V6.26767C14.0391 7.03004 14.858 7.51202 15.5245 7.14196L20.3394 4.46871C20.8103 4.20724 21.4038 4.36578 21.6815 4.82729L23.0773 7.14604C23.3691 7.63098 23.2007 8.26129 22.7059 8.53604L18.0349 11.1294C17.3502 11.5095 17.3485 12.4936 18.0318 12.8762L22.7109 15.4959C23.2035 15.7717 23.3703 16.4004 23.0792 16.8841L21.6815 19.206C21.4038 19.6676 20.8103 19.8261 20.3394 19.5646L15.5245 16.8914C14.858 16.5213 14.0391 17.0033 14.0391 17.7657V23C14.0391 23.5523 13.5914 24 13.0391 24H10.1836Z" />
</svg>
