<svg width="24" height="24" viewBox="0 0 24 24" fill="none" xmlns="http://www.w3.org/2000/svg">
<path d="M6.66667 19.2C5.93029 19.2 5.33333 18.603 5.33333 17.8667V6.13333C5.33333 5.39695 5.93029 4.8 6.66667 4.8C7.40305 4.8 8 5.39695 8 6.13333V17.8667C8 18.603 7.40305 19.2 6.66667 19.2ZM12 24C11.2636 24 10.6667 23.403 10.6667 22.6667V1.33333C10.6667 0.596954 11.2636 0 12 0C12.7364 0 13.3333 0.596954 13.3333 1.33333V22.6667C13.3333 23.403 12.7364 24 12 24ZM1.33333 14.4C0.596954 14.4 0 13.803 0 13.0667V10.9333C0 10.197 0.596954 9.6 1.33333 9.6C2.06971 9.6 2.66667 10.197 2.66667 10.9333V13.0667C2.66667 13.803 2.06971 14.4 1.33333 14.4ZM17.3333 19.2C16.597 19.2 16 18.603 16 17.8667V6.13333C16 5.39695 16.597 4.8 17.3333 4.8C18.0697 4.8 18.6667 5.39695 18.6667 6.13333V17.8667C18.6667 18.603 18.0697 19.2 17.3333 19.2ZM22.6667 14.4C21.9303 14.4 21.3333 13.803 21.3333 13.0667V10.9333C21.3333 10.197 21.9303 9.6 22.6667 9.6C23.403 9.6 24 10.197 24 10.9333V13.0667C24 13.803 23.403 14.4 22.6667 14.4Z" fill="white"/>
</svg>
