<svg width="24" height="24" viewBox="0 0 24 24" fill="none" xmlns="http://www.w3.org/2000/svg">
<path d="M5 3.25H19C19.4832 3.25 19.8902 3.41949 20.2354 3.76465C20.5805 4.10981 20.75 4.51683 20.75 5V19C20.75 19.4832 20.5805 19.8902 20.2354 20.2354C19.8902 20.5805 19.4832 20.75 19 20.75H5C4.51683 20.75 4.10981 20.5805 3.76465 20.2354C3.41949 19.8902 3.25 19.4832 3.25 19V5C3.25 4.51683 3.41949 4.10981 3.76465 3.76465C4.10981 3.41949 4.51683 3.25 5 3.25ZM7 4.75C5.75736 4.75 4.75 5.75736 4.75 7V17C4.75 18.2426 5.75736 19.25 7 19.25H17C18.2426 19.25 19.25 18.2426 19.25 17V7C19.25 5.75736 18.2426 4.75 17 4.75H7ZM8 15.25H13C13.4142 15.25 13.75 15.5858 13.75 16C13.75 16.4142 13.4142 16.75 13 16.75H8C7.58579 16.75 7.25 16.4142 7.25 16C7.25 15.5858 7.58579 15.25 8 15.25ZM8 11.25H16C16.4142 11.25 16.75 11.5858 16.75 12C16.75 12.4142 16.4142 12.75 16 12.75H8C7.58579 12.75 7.25 12.4142 7.25 12C7.25 11.5858 7.58579 11.25 8 11.25ZM8 7.25H16C16.4142 7.25 16.75 7.58579 16.75 8C16.75 8.41421 16.4142 8.75 16 8.75H8C7.58579 8.75 7.25 8.41421 7.25 8C7.25 7.58579 7.58579 7.25 8 7.25Z" stroke="white" stroke-width="0.5"/>
</svg>
