<svg width="24" height="24" viewBox="0 0 24 24" fill="none" xmlns="http://www.w3.org/2000/svg">
<path d="M10.9502 4.09961C11.5723 3.63325 12.4277 3.63325 13.0498 4.09961L19.0498 8.59961C19.4905 8.9301 19.75 9.44917 19.75 10V19C19.75 19.9665 18.9665 20.75 18 20.75H15C14.0335 20.75 13.25 19.9665 13.25 19V16C13.25 15.3096 12.6904 14.75 12 14.75C11.3096 14.75 10.75 15.3096 10.75 16V19C10.75 19.9665 9.9665 20.75 9 20.75H6C5.0335 20.75 4.25 19.9665 4.25 19V10C4.25 9.44917 4.50954 8.9301 4.9502 8.59961L10.9502 4.09961Z" stroke="white" stroke-width="0.5"/>
</svg>
