<svg width="24" height="24" viewBox="0 0 24 24" fill="none" xmlns="http://www.w3.org/2000/svg">
<path d="M4 4.25H20C20.4832 4.25 20.8902 4.41949 21.2354 4.76465C21.5805 5.10981 21.75 5.51683 21.75 6V18C21.75 18.4832 21.5805 18.8902 21.2354 19.2354C20.8902 19.5805 20.4832 19.75 20 19.75H4C3.51683 19.75 3.10981 19.5805 2.76465 19.2354C2.41949 18.8902 2.25 18.4832 2.25 18V6C2.25 5.51683 2.41949 5.10981 2.76465 4.76465C3.10981 4.41949 3.51683 4.25 4 4.25ZM6 5.75C4.75736 5.75 3.75 6.75736 3.75 8V16C3.75 17.2426 4.75736 18.25 6 18.25C7.24264 18.25 8.25 17.2426 8.25 16V8C8.25 6.75736 7.24264 5.75 6 5.75ZM12 5.75C10.7574 5.75 9.75 6.75736 9.75 8V16C9.75 17.2426 10.7574 18.25 12 18.25C13.2426 18.25 14.25 17.2426 14.25 16V8C14.25 6.75736 13.2426 5.75 12 5.75ZM18 5.75C16.7574 5.75 15.75 6.75736 15.75 8V16C15.75 17.2426 16.7574 18.25 18 18.25C19.2426 18.25 20.25 17.2426 20.25 16V8C20.25 6.75736 19.2426 5.75 18 5.75Z" stroke="white" stroke-width="0.5"/>
</svg>
