<svg width="24" height="24" viewBox="0 0 24 24" fill="none" xmlns="http://www.w3.org/2000/svg">
<path d="M1 20C0.447716 20 0 19.5523 0 19V18.3333C0 17.781 0.447715 17.3333 1 17.3333H23C23.5523 17.3333 24 17.781 24 18.3333V19C24 19.5523 23.5523 20 23 20H1ZM1 13.3333C0.447716 13.3333 0 12.8856 0 12.3333V11.6667C0 11.1144 0.447715 10.6667 1 10.6667H23C23.5523 10.6667 24 11.1144 24 11.6667V12.3333C24 12.8856 23.5523 13.3333 23 13.3333H1ZM1 6.66667C0.447716 6.66667 0 6.21895 0 5.66667V5C0 4.44772 0.447715 4 1 4H23C23.5523 4 24 4.44772 24 5V5.66667C24 6.21895 23.5523 6.66667 23 6.66667H1Z" fill="#E3E3E3"/>
</svg>
