<svg width="18" height="18" viewBox="0 0 18 18" fill="none" xmlns="http://www.w3.org/2000/svg">
<path d="M12.0206 9.44476L18 12.9325L15.4473 13.6623L17.2719 16.8228L15.7848 17.6815L13.9602 14.5218L12.0515 16.3678L12.0206 9.44476ZM10.3034 3.43446H12.0206V5.15169H16.3137C16.5414 5.15169 16.7598 5.24215 16.9208 5.40317C17.0818 5.56419 17.1723 5.78258 17.1723 6.0103V9.44476H15.4551V6.86892H6.86892V15.4551H10.3034V17.1723H6.0103C5.78258 17.1723 5.56419 17.0818 5.40317 16.9208C5.24215 16.7598 5.15169 16.5414 5.15169 16.3137V12.0206H3.43446V10.3034H5.15169V6.0103C5.15169 5.78258 5.24215 5.56419 5.40317 5.40317C5.56419 5.24215 5.78258 5.15169 6.0103 5.15169H10.3034V3.43446ZM1.71723 10.3034V12.0206H0V10.3034H1.71723ZM1.71723 6.86892V8.58615H0V6.86892H1.71723ZM1.71723 3.43446V5.15169H0V3.43446H1.71723ZM1.71723 0V1.71723H0V0H1.71723ZM5.15169 0V1.71723H3.43446V0H5.15169ZM8.58615 0V1.71723H6.86892V0H8.58615ZM12.0206 0V1.71723H10.3034V0H12.0206Z" />
</svg>
