<svg width="24" height="24" viewBox="0 0 24 24" fill="none" xmlns="http://www.w3.org/2000/svg">
<path d="M12 16.8C13.3636 16.8 14.5227 16.3333 15.4773 15.4C16.4318 14.4667 16.9091 13.3333 16.9091 12C16.9091 10.6667 16.4318 9.53333 15.4773 8.6C14.5227 7.66667 13.3636 7.2 12 7.2C10.6364 7.2 9.47727 7.66667 8.52273 8.6C7.56818 9.53333 7.09091 10.6667 7.09091 12C7.09091 13.3333 7.56818 14.4667 8.52273 15.4C9.47727 16.3333 10.6364 16.8 12 16.8ZM12 14.88C11.1818 14.88 10.4864 14.6 9.91364 14.04C9.34091 13.48 9.05455 12.8 9.05455 12C9.05455 11.2 9.34091 10.52 9.91364 9.96C10.4864 9.4 11.1818 9.12 12 9.12C12.8182 9.12 13.5136 9.4 14.0864 9.96C14.6591 10.52 14.9455 11.2 14.9455 12C14.9455 12.8 14.6591 13.48 14.0864 14.04C13.5136 14.6 12.8182 14.88 12 14.88ZM12 20C9.34545 20 6.92727 19.2756 4.74545 17.8267C2.56364 16.3778 0.981818 14.4356 0 12C0.981818 9.56444 2.56364 7.62222 4.74545 6.17333C6.92727 4.72444 9.34545 4 12 4C14.6545 4 17.0727 4.72444 19.2545 6.17333C21.4364 7.62222 23.0182 9.56444 24 12C23.0182 14.4356 21.4364 16.3778 19.2545 17.8267C17.0727 19.2756 14.6545 20 12 20ZM12 17.8667C14.0545 17.8667 15.9409 17.3378 17.6591 16.28C19.3773 15.2222 20.6909 13.7956 21.6 12C20.6909 10.2044 19.3773 8.77778 17.6591 7.72C15.9409 6.66222 14.0545 6.13333 12 6.13333C9.94545 6.13333 8.05909 6.66222 6.34091 7.72C4.62273 8.77778 3.30909 10.2044 2.4 12C3.30909 13.7956 4.62273 15.2222 6.34091 16.28C8.05909 17.3378 9.94545 17.8667 12 17.8667Z" />
</svg>
