<svg width="18" height="18" viewBox="0 0 18 18" fill="none" xmlns="http://www.w3.org/2000/svg">
<path d="M8.75199 16C8.51644 16 8.31975 15.9266 8.16194 15.7797C8.00413 15.6329 7.92522 15.4499 7.92522 15.2308V9.65375L2.12544 2.83075C1.98088 2.65125 1.96127 2.46792 2.06659 2.28075C2.1721 2.09358 2.34057 2 2.57201 2H15.428C15.6594 2 15.8279 2.09358 15.9334 2.28075C16.0387 2.46792 16.0191 2.65125 15.8746 2.83075L10.0748 9.65375V15.2308C10.0748 15.4499 9.99587 15.6329 9.83806 15.7797C9.68025 15.9266 9.48356 16 9.24801 16H8.75199ZM9 9.3L14.3202 3H3.67984L9 9.3Z" />
</svg>
