<svg width="24" height="24" viewBox="0 0 24 24" fill="none" xmlns="http://www.w3.org/2000/svg">
<path d="M11.752 19C11.5164 19 11.3198 18.9266 11.1619 18.7797C11.0041 18.6329 10.9252 18.4499 10.9252 18.2308V13.0213C10.9252 12.784 10.8408 12.5545 10.6871 12.3737L5.12544 5.83075C4.98088 5.65125 4.96127 5.46792 5.06659 5.28075C5.1721 5.09358 5.34057 5 5.57201 5H18.428C18.6594 5 18.8279 5.09358 18.9334 5.28075C19.0387 5.46792 19.0191 5.65125 18.8746 5.83075L13.3129 12.3737C13.1592 12.5545 13.0748 12.784 13.0748 13.0213V18.2308C13.0748 18.4499 12.9959 18.6329 12.8381 18.7797C12.6802 18.9266 12.4836 19 12.248 19H11.752ZM11.236 11.3953C11.6355 11.8683 12.3645 11.8683 12.764 11.3953L15.9308 7.64519C16.4798 6.99509 16.0177 6 15.1668 6H8.83318C7.98227 6 7.52016 6.99509 8.06916 7.64519L11.236 11.3953Z" fill="white"/>
</svg>
