<svg width="24" height="24" viewBox="0 0 24 24" fill="none" xmlns="http://www.w3.org/2000/svg">
<path d="M4.20513 19C3.8882 19 3.60812 18.8789 3.36487 18.6367C3.12162 18.3944 3 18.1155 3 17.7999V7.24995C3 6.93448 3.12996 6.64726 3.38989 6.38827C3.64996 6.12942 3.93839 6 4.25518 6H8.85676C9.38575 6 9.89319 6.20957 10.268 6.58284L10.5202 6.83394C10.895 7.20721 11.4024 7.41678 11.9314 7.41678H18.2803C18.5636 7.41678 18.8199 7.51566 19.0492 7.7134C19.3725 7.99217 19.0702 8.40002 18.6433 8.40002H11.5079C10.979 8.40002 10.4716 8.19049 10.0968 7.81729L9.8446 7.56618C9.46978 7.19298 8.96239 6.98345 8.43345 6.98345H4.25518C4.17714 6.98345 4.11303 7.00844 4.06284 7.05842C4.01266 7.10839 3.98756 7.17224 3.98756 7.24995V17.75C3.98756 17.8111 4.00286 17.8611 4.03347 17.9C4.08334 17.963 4.17488 17.9247 4.1955 17.847L5.8875 11.4705C6.12012 10.5938 6.91358 9.98342 7.8206 9.98342H18.3949C19.7095 9.98342 20.6666 11.2301 20.327 12.5001L18.8308 18.095C18.7494 18.4028 18.6025 18.6306 18.39 18.7784C18.1774 18.9261 17.9092 19 17.5856 19H4.20513ZM5.83933 15.5147C5.51101 16.7811 6.46702 18.0166 7.77533 18.0166H16.2891C17.2003 18.0166 17.9964 17.4005 18.2251 16.5184L19.0157 13.4685C19.344 12.2021 18.388 10.9666 17.0797 10.9666H8.56598C7.65471 10.9666 6.85866 11.5827 6.62998 12.4648L5.83933 15.5147Z" fill="white"/>
</svg>
