<svg width="18" height="18" viewBox="0 0 18 18" fill="none" xmlns="http://www.w3.org/2000/svg">
<path d="M1.20513 16C0.888204 16 0.608115 15.8789 0.364869 15.6367C0.121623 15.3944 0 15.1155 0 14.7999V4.24995C0 3.93448 0.129963 3.64726 0.38989 3.38827C0.649962 3.12942 0.938391 3 1.25518 3H6.68274L8.10545 4.41678H15.2803C15.5636 4.41678 15.8199 4.51566 16.0492 4.7134C16.2786 4.91114 16.4156 5.14002 16.4602 5.40002H7.68205L6.25935 3.98345H1.25518C1.17714 3.98345 1.11303 4.00844 1.06284 4.05842C1.01266 4.10839 0.987562 4.17224 0.987562 4.24995V14.75C0.987562 14.8111 1.00286 14.8611 1.03347 14.9C1.06422 14.9388 1.10469 14.9722 1.15488 15.0001L3.28208 6.98342H18L15.8308 15.095C15.7494 15.4028 15.6025 15.6306 15.39 15.7784C15.1774 15.9261 14.9092 16 14.5856 16H1.20513ZM2.19074 15.0166H14.8367L16.6643 7.96665H4.01835L2.19074 15.0166Z" fill="white"/>
</svg>
