<svg width="24" height="24" viewBox="0 0 24 24" fill="none" xmlns="http://www.w3.org/2000/svg">
<path d="M4.50139 18.0844C4.11087 18.4749 4.11087 19.1081 4.50139 19.4986C4.89191 19.8891 5.52508 19.8891 5.9156 19.4986L5.2085 18.7915L4.50139 18.0844ZM19.7916 5.20843C19.7916 4.65614 19.3439 4.20843 18.7916 4.20843L9.79157 4.20843C9.23929 4.20843 8.79157 4.65614 8.79157 5.20843C8.79157 5.76071 9.23929 6.20843 9.79157 6.20843H17.7916V14.2084C17.7916 14.7607 18.2393 15.2084 18.7916 15.2084C19.3439 15.2084 19.7916 14.7607 19.7916 14.2084L19.7916 5.20843ZM5.2085 18.7915L5.9156 19.4986L19.4987 5.91553L18.7916 5.20843L18.0845 4.50132L4.50139 18.0844L5.2085 18.7915Z" />
</svg>
