<svg width="24" height="24" viewBox="0 0 24 24" fill="none" xmlns="http://www.w3.org/2000/svg">
<path d="M3 20.4C2.44772 20.4 2 19.9523 2 19.4V19C2 18.4477 2.44772 18 3 18H4.5V9.6C4.5 7.94 5.02083 6.465 6.0625 5.175C7.10417 3.885 8.45833 3.04 10.125 2.64V1.8C10.125 1.3 10.3073 0.875 10.6719 0.525C11.0365 0.175 11.4792 0 12 0C12.5208 0 12.9635 0.175 13.3281 0.525C13.6927 0.875 13.875 1.3 13.875 1.8V2.64C15.5417 3.04 16.8958 3.885 17.9375 5.175C18.9792 6.465 19.5 7.94 19.5 9.6V18H21C21.5523 18 22 18.4477 22 19V19.4C22 19.9523 21.5523 20.4 21 20.4H3ZM12 24C11.3125 24 10.724 23.765 10.2344 23.295C10.0045 23.0744 9.82865 22.8328 9.70671 22.5703C9.47405 22.0694 9.94772 21.6 10.5 21.6H13.5C14.0523 21.6 14.526 22.0694 14.2933 22.5703C14.1714 22.8328 13.9955 23.0744 13.7656 23.295C13.276 23.765 12.6875 24 12 24ZM7 17C7 17.5523 7.44772 18 8 18H16C16.5523 18 17 17.5523 17 17V9.6C17 8.28 16.5104 7.15 15.5312 6.21C14.5521 5.27 13.375 4.8 12 4.8C10.625 4.8 9.44792 5.27 8.46875 6.21C7.48958 7.15 7 8.28 7 9.6V17Z" fill="white"/>
</svg>
