<svg width="18" height="18" viewBox="0 0 18 18" fill="none" xmlns="http://www.w3.org/2000/svg">
<path d="M9.46582 3.01758C9.7779 3.04081 10.0858 3.08674 10.3887 3.15234L10.3359 3.39648C10.6297 3.46013 10.9195 3.54319 11.2041 3.64258L11.2861 3.40723C11.5797 3.50975 11.8674 3.62889 12.1484 3.76172L12.043 3.9873C12.3172 4.11692 12.5852 4.26036 12.8467 4.41406L12.9727 4.19922C13.2424 4.3578 13.5042 4.52743 13.7578 4.7041L13.6162 4.9082C13.8695 5.08464 14.1147 5.26932 14.3506 5.45801L14.5059 5.26367C14.7533 5.46166 14.9908 5.66381 15.2168 5.86719L15.0508 6.05273C15.2858 6.26423 15.5083 6.47728 15.7178 6.68652L15.8936 6.50879C16.1253 6.74027 16.3403 6.96812 16.5381 7.18555L16.3545 7.35352C16.5799 7.60132 16.7825 7.83577 16.959 8.04883L17.1494 7.89062C17.3909 8.18207 17.5861 8.43258 17.7275 8.62207L17.5283 8.77148C17.5968 8.8632 17.652 8.94073 17.6943 9C17.652 9.05928 17.5968 9.1368 17.5283 9.22852L17.7275 9.37695C17.5862 9.5664 17.3909 9.81687 17.1494 10.1084L16.959 9.95117C16.7825 10.1642 16.5799 10.3987 16.3545 10.6465L16.5381 10.8135C16.3403 11.0309 16.1254 11.2587 15.8936 11.4902L15.7178 11.3135C15.5083 11.5227 15.2858 11.7358 15.0508 11.9473L15.2168 12.1318C14.9908 12.3352 14.7533 12.5373 14.5059 12.7354L14.3506 12.542C14.1147 12.7307 13.8695 12.9154 13.6162 13.0918L13.7578 13.2949C13.5041 13.4716 13.2424 13.6412 12.9727 13.7998L12.8467 13.5859C12.5852 13.7396 12.3172 13.8831 12.043 14.0127L12.1484 14.2373C11.8674 14.3702 11.5797 14.4893 11.2861 14.5918L11.2041 14.3574C10.9195 14.4568 10.6297 14.5399 10.3359 14.6035L10.3887 14.8467C10.0857 14.9123 9.77795 14.9582 9.46582 14.9814L9.44727 14.7334C9.29903 14.7444 9.1499 14.75 9 14.75C8.8501 14.75 8.70097 14.7444 8.55273 14.7334L8.5332 14.9814C8.22109 14.9582 7.91328 14.9123 7.61035 14.8467L7.66406 14.6035C7.37034 14.5399 7.08048 14.4568 6.7959 14.3574L6.71289 14.5918C6.41932 14.4892 6.13165 14.3702 5.85059 14.2373L5.95703 14.0127C5.68283 13.8831 5.41475 13.7396 5.15332 13.5859L5.02637 13.7998C4.75664 13.6412 4.49486 13.4716 4.24121 13.2949L4.38379 13.0918C4.13049 12.9154 3.88526 12.7307 3.64941 12.542L3.49316 12.7354C3.2457 12.5373 3.00819 12.3352 2.78223 12.1318L2.94922 11.9473C2.71424 11.7358 2.49173 11.5227 2.28223 11.3135L2.10547 11.4902C1.87368 11.2587 1.65872 11.0309 1.46094 10.8135L1.64551 10.6465C1.42008 10.3987 1.21754 10.1642 1.04102 9.95117L0.849609 10.1084C0.608064 9.81684 0.41282 9.56635 0.271484 9.37695L0.47168 9.22852C0.403051 9.13656 0.347048 9.05934 0.304688 9C0.347048 8.94066 0.40305 8.86344 0.47168 8.77148L0.271484 8.62207C0.412874 8.43263 0.608108 8.18211 0.849609 7.89062L1.04102 8.04883C1.21754 7.83577 1.42008 7.60132 1.64551 7.35352L1.46094 7.18555C1.65873 6.96812 1.87369 6.74027 2.10547 6.50879L2.28223 6.68652C2.49173 6.47728 2.71424 6.26423 2.94922 6.05273L2.78223 5.86719C3.00819 5.66381 3.2457 5.46167 3.49316 5.26367L3.64941 5.45801C3.88526 5.26932 4.13049 5.08464 4.38379 4.9082L4.24121 4.7041C4.49485 4.52742 4.75665 4.35781 5.02637 4.19922L5.15332 4.41406C5.41475 4.26036 5.68283 4.11692 5.95703 3.9873L5.85059 3.76172C6.13162 3.62887 6.41935 3.50978 6.71289 3.40723L6.7959 3.64258C7.08048 3.54319 7.37034 3.46013 7.66406 3.39648L7.61035 3.15234C7.91323 3.0867 8.22113 3.04085 8.5332 3.01758L8.55273 3.2666C8.70097 3.25557 8.8501 3.25 9 3.25C9.1499 3.25 9.29903 3.25557 9.44727 3.2666L9.46582 3.01758Z" stroke="white" stroke-width="0.5" stroke-dasharray="1 1"/>
<path d="M9.48926 5.28223C9.8198 5.3253 10.1369 5.41083 10.4346 5.53418L10.3398 5.76562C10.6242 5.88355 10.89 6.03756 11.1309 6.22266L11.2822 6.02441C11.5421 6.22403 11.7749 6.457 11.9746 6.7168L11.7773 6.86914C11.9624 7.11001 12.1164 7.37582 12.2344 7.66016L12.4648 7.56445C12.5883 7.86215 12.6736 8.17918 12.7168 8.50977L12.4707 8.54297C12.4902 8.69243 12.5 8.84499 12.5 9C12.5 9.15501 12.4902 9.30757 12.4707 9.45703L12.7168 9.48926C12.6737 9.81988 12.5883 10.1368 12.4648 10.4346L12.2344 10.3398C12.1164 10.6242 11.9624 10.89 11.7773 11.1309L11.9746 11.2822C11.7749 11.5421 11.5421 11.7749 11.2822 11.9746L11.1309 11.7773C10.89 11.9624 10.6242 12.1164 10.3398 12.2344L10.4346 12.4648C10.1368 12.5883 9.81988 12.6737 9.48926 12.7168L9.45703 12.4707C9.30757 12.4902 9.15501 12.5 9 12.5C8.84499 12.5 8.69243 12.4902 8.54297 12.4707L8.50977 12.7168C8.17918 12.6736 7.86215 12.5883 7.56445 12.4648L7.66016 12.2344C7.37582 12.1164 7.11001 11.9624 6.86914 11.7773L6.7168 11.9746C6.457 11.7749 6.22403 11.5421 6.02441 11.2822L6.22266 11.1309C6.03756 10.89 5.88355 10.6242 5.76562 10.3398L5.53418 10.4346C5.41083 10.1369 5.3253 9.8198 5.28223 9.48926L5.5293 9.45703C5.51955 9.38227 5.51276 9.30669 5.50781 9.23047L5.5 9C5.5 8.84499 5.50982 8.69243 5.5293 8.54297L5.28223 8.50977C5.32538 8.17926 5.41076 7.86209 5.53418 7.56445L5.76562 7.66016C5.88355 7.37582 6.03756 7.11001 6.22266 6.86914L6.02441 6.7168C6.22405 6.45702 6.45702 6.22405 6.7168 6.02441L6.86914 6.22266C7.11001 6.03756 7.37582 5.88355 7.66016 5.76562L7.56445 5.53418C7.86209 5.41076 8.17926 5.32538 8.50977 5.28223L8.54297 5.5293C8.69243 5.50982 8.84499 5.5 9 5.5C9.15501 5.5 9.30757 5.50982 9.45703 5.5293L9.48926 5.28223Z" stroke="white" stroke-width="0.5" stroke-dasharray="1 1"/>
<path d="M2 2L16 16" stroke="white" stroke-width="0.5" stroke-dasharray="1 1"/>
</svg>
