<svg width="19" height="18" viewBox="0 0 19 18" fill="none" xmlns="http://www.w3.org/2000/svg">
<path d="M8.38488 0.690998C8.68423 -0.230312 9.98764 -0.230314 10.287 0.690997L11.8056 5.36476C11.9395 5.77678 12.3234 6.05574 12.7566 6.05574H17.6709C18.6397 6.05574 19.0424 7.29536 18.2587 7.86476L14.283 10.7533C13.9325 11.0079 13.7858 11.4593 13.9197 11.8713L15.4383 16.5451C15.7377 17.4664 14.6832 18.2325 13.8995 17.6631L9.92372 14.7746C9.57324 14.5199 9.09864 14.5199 8.74815 14.7746L4.77241 17.6631C3.9887 18.2325 2.93422 17.4664 3.23357 16.5451L4.75217 11.8713C4.88604 11.4593 4.73938 11.0079 4.3889 10.7533L0.413159 7.86476C-0.370555 7.29536 0.0322201 6.05574 1.00094 6.05574H5.91523C6.34845 6.05574 6.73241 5.77678 6.86628 5.36476L8.38488 0.690998Z" />
</svg>
