<svg width="24" height="24" viewBox="0 0 24 24" fill="none" xmlns="http://www.w3.org/2000/svg">
<path d="M20 12C20 7.58172 16.4183 4 12 4C7.58172 4 4 7.58172 4 12C4 16.4183 7.58172 20 12 20V21C7.02944 21 3 16.9706 3 12C3 7.02944 7.02944 3 12 3C16.9706 3 21 7.02944 21 12C21 16.9706 16.9706 21 12 21V20C16.4183 20 20 16.4183 20 12Z" fill="white"/>
<path d="M11.9444 18.5C11.5472 18.5 11.2072 18.3586 10.9243 18.0757C10.6414 17.7928 10.5 17.4528 10.5 17.0556C10.5 16.6583 10.6414 16.3183 10.9243 16.0354C11.2072 15.7525 11.5472 15.6111 11.9444 15.6111C12.3417 15.6111 12.6817 15.7525 12.9646 16.0354C13.2475 16.3183 13.3889 16.6583 13.3889 17.0556C13.3889 17.4528 13.2475 17.7928 12.9646 18.0757C12.6817 18.3586 12.3417 18.5 11.9444 18.5ZM11.9444 14.1667C11.1467 14.1667 10.5 13.4951 10.5 12.6667V7C10.5 6.17157 11.1467 5.5 11.9444 5.5C12.7422 5.5 13.3889 6.17157 13.3889 7V12.6667C13.3889 13.4951 12.7422 14.1667 11.9444 14.1667Z" fill="white"/>
</svg>
