<svg width="16" height="16" viewBox="0 0 16 16" fill="none" xmlns="http://www.w3.org/2000/svg">
<rect x="0.5" y="0.5" width="15" height="15" rx="7.5" />
<path d="M8 12.5C7.725 12.5 7.48958 12.4021 7.29375 12.2063C7.09792 12.0104 7 11.775 7 11.5C7 11.225 7.09792 10.9896 7.29375 10.7938C7.48958 10.5979 7.725 10.5 8 10.5C8.275 10.5 8.51042 10.5979 8.70625 10.7938C8.90208 10.9896 9 11.225 9 11.5C9 11.775 8.90208 12.0104 8.70625 12.2063C8.51042 12.4021 8.275 12.5 8 12.5ZM8 9.5C7.44772 9.5 7 9.05228 7 8.5V4.5C7 3.94772 7.44772 3.5 8 3.5C8.55228 3.5 9 3.94772 9 4.5V8.5C9 9.05228 8.55228 9.5 8 9.5Z" />
</svg>
